<svg xmlns="http://www.w3.org/2000/svg">
    <symbol id="logo" viewBox="0 0 2000 800" style="fill-rule:evenodd;">
        <path class="text-italics" fill="var(--light-blue)"
              d="M118.298 706.544c-15.473,8.378 -29.384,12.579 -41.809,12.579 -8.762,0 -15.344,-2.459 -19.802,-7.404 -4.458,-4.918 -6.687,-12.629 -6.687,-23.108 0,-10.042 1.819,-19.187 5.431,-27.411 3.638,-8.198 8.582,-15.167 14.833,-20.879 6.252,-5.713 13.322,-10.093 21.212,-13.142 7.865,-3.049 15.679,-4.586 23.44,-4.586 7.251,0 13.297,2.485 18.087,7.429l-7.506 17.754 -4.637 2.331c0,-2.741 -0.076,-5.098 -0.204,-7.07 -0.129,-1.999 -0.308,-3.561 -0.564,-4.689 -0.282,-1.998 -1.306,-3.765 -3.075,-5.252 -1.486,-1.459 -3.33,-2.51 -5.482,-3.176 -2.126,-0.692 -3.997,-1.025 -5.534,-1.025 -9.222,0 -16.984,2.997 -23.337,9.018 -6.354,6.02 -11.145,13.603 -14.347,22.775 -3.203,9.17 -4.791,18.266 -4.791,27.335 0,4.277 0.693,8.273 2.076,12.04 1.357,3.74 3.74,6.866 7.122,9.351 3.381,2.485 7.736,3.714 13.09,3.714 3.306,0 6.584,-0.41 9.863,-1.229 3.28,-0.82 6.584,-1.973 9.941,-3.407 1.665,-0.693 3.739,-1.64 6.224,-2.845 2.512,-1.204 5.253,-2.561 8.25,-4.047l-1.794 4.944zm25.316 -18.932l13.013 -8.403c3.639,-2.356 6.355,-4.713 8.096,-7.07 1.742,-2.331 2.613,-5.328 2.613,-8.992 0,-2.05 -0.461,-3.714 -1.383,-4.996 -0.922,-1.281 -2.075,-1.921 -3.485,-1.921 -3.047,0 -5.789,1.819 -8.223,5.456 -2.459,3.613 -4.585,8.071 -6.379,13.322l-4.252 12.604zm-0.667 5.38c-0.204,1.051 -0.358,2.024 -0.486,2.946 -0.129,0.922 -0.23,1.948 -0.333,3.049 0,3.586 1,6.327 2.998,8.223 0.973,0.897 2.074,1.589 3.381,2.101 1.306,0.486 2.793,0.743 4.431,0.743 5.279,0 14.398,-3.279 27.361,-9.837l-0.589 3.817c-7.352,5.047 -13.936,8.787 -19.752,11.169 -5.79,2.408 -10.76,3.613 -14.859,3.613 -3.944,0 -7.198,-1.102 -9.76,-3.306 -2.537,-2.177 -3.817,-6.302 -3.817,-12.347 0,-5.534 0.794,-11.298 2.408,-17.241 1.588,-5.97 3.637,-11.196 6.149,-15.704 2.485,-4.483 4.995,-7.686 7.479,-9.582 4.561,-3.791 8.686,-6.61 12.4,-8.48 3.74,-1.87 7.174,-2.817 10.324,-2.817 6.635,0 9.966,3.278 9.966,9.812 0,4.841 -1.358,8.761 -4.047,11.758 -2.716,2.998 -8.096,6.866 -16.14,11.606 -8.045,4.739 -13.758,8.222 -17.114,10.477zm73.683 -26.463c2.356,-1.255 4.714,-2.562 7.121,-3.895 0.36,-0.205 2.383,-1.409 6.072,-3.612 2.536,-1.511 5.124,-2.998 7.711,-4.508 2.101,-1.204 3.921,-2.204 5.483,-2.998 2.792,-1.46 4.816,-2.177 6.071,-2.177 2.152,0 3.228,1.127 3.228,3.381l-0.205 1.435 -0.179 1.332 -11.041 42.86 -0.512 2.638 -0.385 1.819c0,1.512 0.794,2.434 2.408,2.792 0.436,0 0.923,-0.05 1.46,-0.179 0.538,-0.128 1.358,-0.461 2.511,-0.947l5.789 -2.716 7.942 -3.997 -0.897 3.818c-11.604,7.787 -18.675,12.501 -21.237,14.089 -3.305,2.101 -5.611,3.152 -6.917,3.152 -1.05,0 -1.973,-0.512 -2.792,-1.538 -0.846,-1.025 -1.333,-2.305 -1.486,-3.868 0,-1.589 0.512,-4.202 1.511,-7.864 0.666,-2.204 1.051,-3.536 1.179,-4.049 0.127,-0.486 0.281,-1.024 0.409,-1.562l7.865 -31.357c0.18,-0.999 0.256,-2.409 0.256,-4.201 0,-1.922 -0.717,-2.87 -2.177,-2.87 -2.356,0 -9.376,3.971 -21.084,11.913l-11.399 39.708 -11.299 4.458 13.834 -49.495c0.205,-0.743 0.308,-1.87 0.308,-3.356 0,-1.973 -0.718,-2.946 -2.178,-2.946 -0.947,0 -2.817,0.564 -5.559,1.691 -2.767,1.127 -4.688,2.049 -5.79,2.741l0.308 -4.432 10.195 -5.918 5.995 -3.304c0.949,-0.512 1.922,-1 2.92,-1.461 1,-0.487 1.718,-0.82 2.101,-1.024 1.205,-0.487 2.332,-0.743 3.382,-0.743 1.307,0 1.947,1.127 1.947,3.381 0,3.536 -0.947,8.147 -2.869,13.809zm99.403 -5.969l-2.689 2.766c-1.051,1.127 -1.82,1.819 -2.332,1.999 -0.513,0.204 -1.307,0.307 -2.408,0.307l-16.268 0 -6.917 30.537 -0.615 3.075c0,1.946 0.514,3.662 1.537,5.097 1.026,1.46 2.306,2.178 3.792,2.178 0.923,0 2.357,-0.359 4.355,-1.051 1.307,-0.512 2.409,-0.922 3.28,-1.28 0.87,-0.36 2.203,-0.948 3.996,-1.794l5.354 -2.485 -0.615 4.432 -11.63 6.661 -12.374 6.994c-1.205,0.538 -2.228,0.82 -3.1,0.82 -1.691,0 -3.228,-1.076 -4.56,-3.228 -0.717,-1.102 -1.281,-2.383 -1.691,-3.818 -0.435,-1.459 -0.64,-3.048 -0.64,-4.79l0.896 -7.045 8.48 -34.303 -15.089 0 3.1 -2.562c1.486,-1.23 2.69,-2.024 3.587,-2.357 0.922,-0.333 2.074,-0.486 3.458,-0.486l5.866 0 5.432 -20.7 12.27 -5.764 -6.302 26.438 21.827 0.359zm52.06 2.613c-2.996,-0.897 -5.738,-1.358 -8.172,-1.358 -1.613,0 -3.074,0.231 -4.405,0.665 -1.333,0.461 -2.563,1.051 -3.716,1.794l-3.586 2.255 -12.912 47.957 -11.989 4.279 11.938 -44.372c1.076,-3.739 1.614,-6.558 1.614,-8.454 0,-2.741 -0.82,-4.124 -2.485,-4.124 -1.127,0 -2.382,0.256 -3.74,0.768l-4.586 1.794 -2.998 1.28 0.308 -4.124 8.71 -4.612c4.944,-2.638 8.736,-4.559 11.4,-5.763 2.639,-1.204 4.458,-1.819 5.406,-1.819 0.999,0 1.486,0.743 1.486,2.228l-1.179 10.248c8.454,-8.326 14.423,-12.476 17.933,-12.476 1.691,0 3.51,0.307 5.405,0.897l-4.432 12.937zm15.351 24.439l13.013 -8.403c3.638,-2.356 6.354,-4.713 8.096,-7.07 1.741,-2.331 2.613,-5.328 2.613,-8.992 0,-2.05 -0.461,-3.714 -1.384,-4.996 -0.922,-1.281 -2.074,-1.921 -3.484,-1.921 -3.048,0 -5.789,1.819 -8.223,5.456 -2.459,3.613 -4.586,8.071 -6.38,13.322l-4.251 12.604zm-0.667 5.38c-0.205,1.051 -0.358,2.024 -0.487,2.946 -0.128,0.922 -0.23,1.948 -0.333,3.049 0,3.586 1,6.327 2.998,8.223 0.973,0.897 2.075,1.589 3.382,2.101 1.306,0.486 2.792,0.743 4.431,0.743 5.278,0 14.398,-3.279 27.36,-9.837l-0.588 3.817c-7.353,5.047 -13.937,8.787 -19.752,11.169 -5.79,2.408 -10.76,3.613 -14.859,3.613 -3.945,0 -7.198,-1.102 -9.76,-3.306 -2.537,-2.177 -3.818,-6.302 -3.818,-12.347 0,-5.534 0.794,-11.298 2.409,-17.241 1.588,-5.97 3.637,-11.196 6.148,-15.704 2.485,-4.483 4.995,-7.686 7.48,-9.582 4.561,-3.791 8.685,-6.61 12.4,-8.48 3.74,-1.87 7.173,-2.817 10.324,-2.817 6.635,0 9.965,3.278 9.965,9.812 0,4.841 -1.358,8.761 -4.047,11.758 -2.716,2.998 -8.096,6.866 -16.139,11.606 -8.045,4.739 -13.758,8.222 -17.114,10.477zm122.767 -43.653c8.889,0 13.347,5.815 13.347,17.472 0,8.223 -1.383,15.524 -4.15,21.954 -2.792,6.43 -6.431,11.887 -10.914,16.396 -4.508,4.508 -9.222,7.89 -14.166,10.195 -4.97,2.307 -9.377,3.46 -13.297,3.46 -3.201,0 -5.712,-0.641 -7.557,-1.948 -1.845,-1.306 -3.228,-3.432 -4.098,-6.43 -0.872,-2.972 -1.307,-6.993 -1.307,-12.117 0,-3.945 1.025,-9.428 3.049,-16.447 2.023,-7.045 4.687,-12.143 8.043,-15.345 5.304,-5.15 9.966,-9.018 14.04,-11.554 4.047,-2.562 7.301,-4.125 9.811,-4.739 2.511,-0.59 4.893,-0.897 7.199,-0.897zm-8.787 7.839c-4.022,0 -7.711,2.126 -11.017,6.378 -3.329,4.253 -5.891,9.582 -7.736,16.013 -1.844,6.429 -2.767,12.398 -2.767,17.906 0,4.561 0.794,7.942 2.384,10.171 1.613,2.229 4.226,3.33 7.864,3.33 2.869,0 5.635,-1.179 8.248,-3.56 2.613,-2.384 4.997,-5.637 7.123,-9.762 2.152,-4.124 3.791,-8.402 4.944,-12.859 1.152,-4.458 1.716,-8.635 1.716,-12.528 0,-10.068 -3.586,-15.089 -10.759,-15.089zm-0.585 107.597l5.329 -11.528c6.61,1.204 11.246,1.793 13.885,1.793 4.407,0 7.865,-1.922 10.401,-5.765 2.536,-3.842 4.765,-9.58 6.712,-17.215l16.063 -66.453 -19.803 0.025 7.864 -5.38 13.168 0 3.1 -13.834c0.897,-4.047 1.87,-7.634 2.946,-10.785 1.051,-3.126 2.28,-5.533 3.689,-7.173 5.15,-6.431 10.197,-11.579 15.141,-15.448 4.919,-3.869 10.375,-5.79 16.395,-5.79 3.356,0 5.841,0.103 7.506,0.308l-7.224 8.761 -5.252 -0.307c-4.201,0 -7.378,0.383 -9.555,1.179 -2.177,0.793 -3.792,2.177 -4.816,4.15 -1.025,1.971 -2.101,5.226 -3.254,9.709l-7.89 29.23 18.445 0 -6.302 5.38 -13.219 0 -15.371 59.511c-2.511,9.863 -7.737,19.214 -15.679,28.053 -3.049,3.432 -5.662,5.942 -7.839,7.506 -2.177,1.563 -4.611,2.639 -7.275,3.201 -2.691,0.59 -6.405,0.872 -11.17,0.872l-3.228 0 -2.767 0zm156.429 -72.782l16.831 -64.199c-21.954,2.203 -32.945,13.116 -32.945,32.74l0.744 9.812 -12.528 5.405c-0.308,-1.844 -0.563,-3.587 -0.794,-5.2 -0.23,-1.64 -0.333,-3.382 -0.333,-5.226 0,-4.663 0.665,-8.813 2.023,-12.502 1.358,-3.663 3.357,-6.994 5.995,-9.94 4.919,-5.457 10.913,-9.991 18.01,-13.577 3.869,-1.948 7.506,-3.434 10.965,-4.433 4.047,-1.204 7.993,-1.793 11.861,-1.793l11.4 -4.995 -0.897 4.508c29.999,0 45.012,9.684 45.012,29.051 0,8.659 -1.076,16.396 -3.228,23.211 -2.152,6.814 -5.355,12.732 -9.606,17.804 -8.353,9.966 -20.265,17.523 -35.713,22.672 -4.304,1.512 -13.245,2.255 -26.797,2.255 -2.049,0 -3.663,-0.026 -4.867,-0.076 -6.02,-0.206 -9.478,-0.308 -10.427,-0.308l-14.346 -0.589 7.199 -7.327c5.456,-0.539 9.452,-1.256 12.015,-2.127 2.562,-0.871 4.636,-2.434 6.226,-4.688 1.613,-2.229 2.996,-5.739 4.2,-10.478zm-5.994 17.293c3.996,0 8.633,0.229 13.885,0.691 5.251,0.461 8.352,0.692 9.248,0.692 9.249,0 17.242,-2.331 23.978,-6.994 6.738,-4.663 11.81,-11.093 15.244,-19.316 3.433,-8.224 5.149,-17.626 5.149,-28.206 0,-5.713 -0.794,-10.632 -2.409,-14.731 -1.588,-4.123 -4.79,-7.532 -9.606,-10.246 -2.459,-1.333 -5.354,-2.358 -8.685,-3.075 -3.304,-0.692 -7.225,-1.05 -11.733,-1.05 -1.255,4.611 -2.152,7.942 -2.716,9.991 -1.742,6.712 -2.689,10.298 -2.843,10.81 -0.512,1.845 -1.486,5.765 -2.971,11.76 -1.486,5.969 -2.794,11.118 -3.946,15.396 -1.153,4.279 -2.126,7.507 -2.92,9.709 -1.666,4.765 -3.921,8.966 -6.789,12.63 -2.895,3.664 -7.174,7.43 -12.886,11.349l0 0.59zm91.846 -46.446c14.832,-8.993 23.235,-13.501 25.233,-13.501 1.82,0 2.716,0.922 2.716,2.766l-0.307 1.742 -0.41 1.615 -11.247 43.192 -0.973 4.483c0.409,2.255 1.614,3.382 3.612,3.382 1.204,0 2.716,-0.359 4.586,-1.051l11.707 -4.944 -0.973 4.432 -10.888 5.917 -11.272 5.841c-2.947,1.41 -4.867,2.102 -5.764,2.102 -2.613,0 -4.1,-1.999 -4.509,-5.995 0,-1.666 0.308,-3.767 0.897,-6.302l4.483 -16.883 5.431 -21.237 0.358 -1.333 0.282 -1.741c0,-1.64 -0.691,-2.485 -2.024,-2.485 -1.613,0 -5.456,1.331 -11.528,3.996l0.59 -3.996zm34.61 -43.936c0.153,1.819 0.512,3.689 1.05,5.585 0.564,1.922 1.384,4.099 2.485,6.507l-11.425 6.353c-2.588,-2.613 -4.279,-6.558 -5.022,-11.784l12.912 -6.661zm62.872 80.083c0,1.947 -0.128,3.15 -0.36,3.586 -0.255,0.461 -1.255,1.154 -3.022,2.101l-10.658 6.892c-1.434,0.947 -3.329,2.177 -5.687,3.663 -1.46,0.896 -2.715,1.666 -3.765,2.331 -1.897,1.051 -3.203,1.563 -3.895,1.563 -0.845,0 -1.46,-0.205 -1.793,-0.64 -0.359,-0.411 -0.614,-1.076 -0.768,-1.948 -0.128,-0.871 -0.308,-1.459 -0.513,-1.741l0.82 -5.688 1.051 -6.891 -12.528 8.761 -6.968 4.919 -3.51 2.101c-0.947,0.436 -1.895,0.717 -2.792,0.82 -2.204,0 -3.766,-1.256 -4.714,-3.792 -0.922,-2.511 -1.384,-5.355 -1.384,-8.48 0,-6.839 0.769,-13.475 2.281,-19.931 1.537,-6.429 3.971,-12.322 7.327,-17.65 3.355,-5.355 7.813,-9.684 13.346,-13.04 3.203,-2.383 6.047,-4.1 8.506,-5.098 2.434,-1 5.201,-1.486 8.248,-1.486 0.949,0 1.922,0 2.921,0 0.897,0.153 1.564,0.256 1.947,0.307l4.816 0.794c0.743,0.154 1.384,0.282 1.897,0.385 0.537,0.102 1.537,0.358 2.971,0.819 0.794,0.179 1.512,0.359 2.101,0.487 0.615,0.103 1.46,0.358 2.561,0.692l-2.228 2.664c-0.564,0.64 -1.025,1.23 -1.409,1.742 -0.41,0.538 -0.768,0.999 -1.128,1.461 -0.358,0.589 -0.768,1.562 -1.255,2.971l-1.434 5.175 -7.557 33.381c0,1.358 -0.103,2.356 -0.308,2.946 0.154,0.922 0.333,1.486 0.563,1.741 0.231,0.257 0.641,0.385 1.23,0.385 0.871,0 1.896,-0.257 3.1,-0.743l5.61 -2.562 6.38 -2.997zm-27.131 -4.329l9.53 -35.636 -4.406 -0.819 -4.355 -0.769 -3.125 -0.282c-3.51,0 -6.481,1.82 -8.941,5.482 -2.486,3.664 -4.432,7.967 -5.841,12.912 -1.435,4.97 -2.511,9.812 -3.254,14.5 -0.742,4.713 -1.127,7.608 -1.127,8.659 0,1.588 0.308,3.253 0.897,4.944 0.589,1.716 1.512,2.562 2.767,2.562 1.204,0 3.586,-1.101 7.173,-3.33 3.586,-2.203 7.147,-4.945 10.682,-8.223zm29.979 70.117c-7.839,0 -13.45,-0.845 -16.807,-2.536 -3.356,-1.717 -5.02,-4.638 -5.02,-8.788 0,-1.742 0.434,-3.432 1.357,-5.098 0.897,-1.639 2.459,-3.663 4.714,-6.071 1.307,-1.332 2.817,-2.844 4.535,-4.535 1.742,-1.665 4.175,-3.971 7.326,-6.917l16.293 -15.217c-2.792,-4.253 -4.201,-9.145 -4.201,-14.705 0,-1.793 0.666,-5.226 2.024,-10.272 0.667,-2.537 1.383,-5.022 2.177,-7.405 0.795,-2.407 1.743,-4.944 2.844,-7.583 1.999,-4.994 3.971,-8.556 5.867,-10.631 2.792,-3.407 5.969,-6.277 9.53,-8.582 3.561,-2.331 7.352,-4.1 11.452,-5.303 4.072,-1.204 8.3,-1.793 12.706,-1.793l4.509 0 6.302 0.307 6.84 0.461c-2.46,4.048 -4.125,6.61 -4.97,7.686 -0.846,1.076 -2.101,1.665 -3.741,1.819l-20.955 83.848c-0.59,1.794 -3.203,4.56 -7.789,8.352 -2.92,2.178 -5.379,3.971 -7.428,5.355 -2.049,1.383 -4.022,2.561 -5.867,3.508 -3.356,1.794 -6.456,2.921 -9.351,3.382 -2.869,0.488 -6.994,0.718 -12.347,0.718zm43.038 -66.095c-9.146,6.02 -17.625,12.296 -25.414,18.83 -7.787,6.532 -15.242,13.705 -22.338,21.467 -1.769,2.152 -2.896,3.741 -3.382,4.765 -0.512,1 -0.743,2.434 -0.743,4.278 0,3.51 1.64,5.841 4.944,7.046 1.589,0.537 3.51,0.973 5.713,1.255 2.229,0.307 4.765,0.461 7.609,0.461 5.098,0 9.069,-0.41 11.913,-1.255 2.843,-0.846 5.277,-2.767 7.275,-5.738 1.948,-2.691 3.715,-7.123 5.303,-13.322l9.12 -37.787zm1.178 -7.199l1.64 -5.176 1.742 -6.481c0.589,-2.382 1.204,-4.329 1.793,-5.789 0.564,-1.589 1.179,-2.972 1.87,-4.125 0.257,-0.384 0.615,-0.896 1.051,-1.537 0.461,-0.615 0.948,-1.204 1.461,-1.716 0.537,-0.539 1.049,-1.025 1.562,-1.512 0.487,-0.486 1.102,-1.025 1.793,-1.614l3.971 -3.304c-4.509,-0.615 -9.095,-0.897 -13.809,-0.897l-6.302 0c-0.998,0 -1.87,0 -2.613,0 -0.768,0 -1.639,0.103 -2.689,0.282 -1.025,0.204 -2.076,0.794 -3.177,1.767 -1.102,0.974 -2.281,2.613 -3.536,4.868 -1.434,3.356 -3.175,8.684 -5.174,15.986 -1.998,7.327 -2.998,12.501 -2.998,15.55 0,1.998 0.308,3.817 0.948,5.457 0.615,1.613 1.486,2.51 2.588,2.664l2.177 -0.897 17.702 -13.526zm57.006 -24.952c2.356,-1.255 4.714,-2.562 7.121,-3.895 0.36,-0.205 2.383,-1.409 6.072,-3.612 2.536,-1.511 5.124,-2.998 7.711,-4.508 2.101,-1.204 3.921,-2.204 5.483,-2.998 2.792,-1.46 4.816,-2.177 6.071,-2.177 2.152,0 3.228,1.127 3.228,3.381l-0.205 1.435 -0.179 1.332 -11.041 42.86 -0.512 2.638 -0.385 1.819c0,1.512 0.794,2.434 2.408,2.792 0.436,0 0.922,-0.05 1.46,-0.179 0.538,-0.128 1.358,-0.461 2.511,-0.947l5.789 -2.716 7.942 -3.997 -0.897 3.818c-11.604,7.787 -18.675,12.501 -21.237,14.089 -3.305,2.101 -5.611,3.152 -6.917,3.152 -1.05,0 -1.973,-0.512 -2.792,-1.538 -0.846,-1.025 -1.333,-2.305 -1.486,-3.868 0,-1.589 0.512,-4.202 1.511,-7.864 0.666,-2.204 1.051,-3.536 1.179,-4.049 0.127,-0.486 0.281,-1.024 0.409,-1.562l7.865 -31.357c0.18,-0.999 0.256,-2.409 0.256,-4.201 0,-1.922 -0.717,-2.87 -2.177,-2.87 -2.356,0 -9.376,3.971 -21.084,11.913l-11.399 39.708 -11.299 4.458 13.834 -49.495c0.205,-0.743 0.308,-1.87 0.308,-3.356 0,-1.973 -0.718,-2.946 -2.178,-2.946 -0.947,0 -2.817,0.564 -5.559,1.691 -2.767,1.127 -4.689,2.049 -5.79,2.741l0.308 -4.432 10.195 -5.918 5.995 -3.304c0.949,-0.512 1.922,-1 2.92,-1.461 1,-0.487 1.718,-0.82 2.101,-1.024 1.205,-0.487 2.332,-0.743 3.382,-0.743 1.307,0 1.947,1.127 1.947,3.381 0,3.536 -0.947,8.147 -2.869,13.809zm91.692 -17.19c8.89,0 13.347,5.815 13.347,17.472 0,8.223 -1.383,15.524 -4.15,21.954 -2.792,6.43 -6.43,11.887 -10.913,16.396 -4.509,4.508 -9.223,7.89 -14.167,10.195 -4.97,2.307 -9.376,3.46 -13.297,3.46 -3.201,0 -5.712,-0.641 -7.557,-1.948 -1.844,-1.306 -3.228,-3.432 -4.098,-6.43 -0.871,-2.972 -1.307,-6.993 -1.307,-12.117 0,-3.945 1.025,-9.428 3.049,-16.447 2.023,-7.045 4.687,-12.143 8.044,-15.345 5.303,-5.15 9.965,-9.018 14.039,-11.554 4.047,-2.562 7.301,-4.125 9.811,-4.739 2.511,-0.59 4.893,-0.897 7.199,-0.897zm-8.787 7.839c-4.022,0 -7.711,2.126 -11.016,6.378 -3.33,4.253 -5.892,9.582 -7.737,16.013 -1.844,6.429 -2.766,12.398 -2.766,17.906 0,4.561 0.794,7.942 2.383,10.171 1.613,2.229 4.226,3.33 7.864,3.33 2.869,0 5.636,-1.179 8.249,-3.56 2.613,-2.384 4.996,-5.637 7.122,-9.762 2.152,-4.124 3.791,-8.402 4.945,-12.859 1.152,-4.458 1.716,-8.635 1.716,-12.528 0,-10.068 -3.586,-15.089 -10.76,-15.089zm28.467 46.804l10.529 -7.608c0.999,5.763 2.306,9.786 3.919,12.092 1.64,2.279 4.253,3.433 7.84,3.433 3.971,0 7.173,-1.409 9.658,-4.201 2.485,-2.819 3.714,-5.868 3.714,-9.147 0,-2.152 -0.768,-3.919 -2.28,-5.302 -1.537,-1.41 -3.868,-3.126 -7.045,-5.175 -1.588,-1.102 -2.972,-2.152 -4.15,-3.125 -1.178,-0.975 -2.178,-1.922 -2.972,-2.87 -1.613,-1.998 -2.408,-4.483 -2.408,-7.429 0,-3.895 1.307,-7.814 3.945,-11.785 2.613,-3.971 5.995,-7.224 10.12,-9.734 4.15,-2.537 8.249,-3.792 12.347,-3.792 5.97,0 9.838,1.741 11.657,5.2l-7.968 9.248c-3.996,-4.406 -7.633,-6.609 -10.887,-6.609 -3.254,0 -5.815,1.204 -7.686,3.586 -1.87,2.409 -2.818,4.74 -2.818,6.994 0,1.845 0.718,3.484 2.178,4.894 1.435,1.434 3.843,3.407 7.173,5.892 4.201,2.741 7.02,4.867 8.454,6.378 0.769,0.743 1.333,1.665 1.742,2.741 0.385,1.076 0.589,2.434 0.589,4.074 0,4.816 -1.64,9.274 -4.918,13.424 -3.279,4.15 -7.481,7.481 -12.579,9.94 -5.098,2.485 -9.966,3.715 -14.55,3.715 -3.049,0 -5.432,-0.564 -7.098,-1.666 -1.691,-1.101 -2.946,-2.613 -3.79,-4.56 -0.846,-1.921 -1.743,-4.791 -2.716,-8.608zm107.139 -43.422l-2.689 2.766c-1.051,1.127 -1.819,1.819 -2.331,1.999 -0.514,0.204 -1.308,0.307 -2.409,0.307l-16.268 0 -6.917 30.537 -0.615 3.075c0,1.946 0.514,3.662 1.538,5.097 1.025,1.46 2.305,2.178 3.791,2.178 0.923,0 2.357,-0.359 4.355,-1.051 1.307,-0.512 2.409,-0.922 3.28,-1.28 0.87,-0.36 2.203,-0.948 3.997,-1.794l5.353 -2.485 -0.615 4.432 -11.63 6.661 -12.374 6.994c-1.204,0.538 -2.228,0.82 -3.1,0.82 -1.691,0 -3.228,-1.076 -4.56,-3.228 -0.717,-1.102 -1.281,-2.383 -1.691,-3.818 -0.435,-1.459 -0.64,-3.048 -0.64,-4.79l0.896 -7.045 8.48 -34.303 -15.089 0 3.1 -2.562c1.486,-1.23 2.69,-2.024 3.587,-2.357 0.922,-0.333 2.074,-0.486 3.458,-0.486l5.866 0 5.432 -20.7 12.27 -5.764 -6.302 26.438 21.827 0.359zm10.79 2.28c14.832,-8.993 23.235,-13.501 25.234,-13.501 1.819,0 2.716,0.922 2.716,2.766l-0.308 1.742 -0.41 1.615 -11.246 43.192 -0.973 4.483c0.409,2.255 1.613,3.382 3.611,3.382 1.204,0 2.716,-0.359 4.586,-1.051l11.707 -4.944 -0.973 4.432 -10.888 5.917 -11.271 5.841c-2.947,1.41 -4.868,2.102 -5.765,2.102 -2.613,0 -4.099,-1.999 -4.508,-5.995 0,-1.666 0.307,-3.767 0.896,-6.302l4.483 -16.883 5.431 -21.237 0.358 -1.333 0.282 -1.741c0,-1.64 -0.691,-2.485 -2.023,-2.485 -1.614,0 -5.456,1.331 -11.529,3.996l0.59 -3.996zm34.61 -43.936c0.154,1.819 0.512,3.689 1.051,5.585 0.564,1.922 1.383,4.099 2.484,6.507l-11.425 6.353c-2.588,-2.613 -4.279,-6.558 -5.022,-11.784l12.912 -6.661zm50.805 43.346l-10.528 6.302 -1.128 -6.148c-0.308,-1.153 -0.999,-2.177 -2.075,-3.049 -1.05,-0.871 -2.665,-1.306 -4.817,-1.306 -3.843,0 -7.096,2.843 -9.76,8.505 -2.664,5.687 -4.714,12.015 -6.148,18.983 -1.409,6.994 -2.127,11.887 -2.127,14.68 0,6.353 2.895,9.53 8.686,9.53 3.099,0 7.454,-0.973 13.065,-2.895 5.61,-1.921 10.76,-4.022 15.447,-6.328l-0.615 4.432c-2.946,1.639 -5.687,3.151 -8.223,4.483 -2.562,1.358 -4.842,2.51 -6.866,3.458 -2.023,0.949 -4.022,1.819 -5.994,2.588 -1.973,0.768 -3.792,1.41 -5.431,1.896 -3.408,0.948 -6.38,1.435 -8.942,1.435 -3.329,0 -5.942,-0.615 -7.787,-1.87 -0.846,-0.564 -1.615,-1.308 -2.331,-2.255 -0.692,-0.948 -1.23,-2.049 -1.615,-3.304 -0.358,-1.257 -0.665,-2.588 -0.896,-4.023 -0.23,-1.409 -0.333,-3.048 -0.333,-4.893 0,-3.202 0.512,-7.327 1.562,-12.323 1.051,-4.995 2.613,-9.964 4.664,-14.935 2.049,-4.944 4.405,-8.762 7.044,-11.476 1.307,-1.436 3.612,-3.357 6.943,-5.688 3.304,-2.357 6.66,-4.406 10.042,-6.123 3.356,-1.716 5.995,-2.587 7.916,-2.587 3.381,0 5.943,0.973 7.685,2.92 1.717,1.948 2.562,4.611 2.562,7.968l0 2.023zm45.887 43.5c3.381,0.718 6.481,1.076 9.222,1.076 4.894,0 8.531,-0.41 10.914,-1.23 2.382,-0.846 4.457,-2.945 6.224,-6.302 1.794,-3.381 3.69,-9.119 5.74,-17.241l11.937 -47.342c-3.1,-0.794 -5.815,-1.358 -8.172,-1.743 -2.356,-0.358 -4.637,-0.537 -6.839,-0.537 -5.893,0 -10.197,1.537 -12.912,4.586 -1.333,1.537 -2.383,3.227 -3.101,5.047 -0.716,1.844 -1.101,3.842 -1.101,6.045 0,4.15 1.589,10.273 4.739,18.317l-10.708 7.89c-2.485,-6.071 -3.74,-11.194 -3.74,-15.396 0,-5.892 1.665,-11.657 4.996,-17.292 3.329,-5.637 7.711,-10.223 13.192,-13.732 5.483,-3.536 11.145,-5.303 16.986,-5.303 1.459,0 3.868,0.179 7.224,0.564l6.968 0.666 5.713 -4.201 7.251 73.37 0.614 -0.051 42.833 -63.943c2.819,-4.356 5.329,-7.634 7.558,-9.889 2.229,-2.254 5.713,-4.867 10.452,-7.865 3.92,-2.51 6.456,-3.996 7.66,-4.508 1.204,-0.59 2.87,-0.897 4.971,-0.897l3.662 0 -4.277 11.528c-3.152,-1.255 -5.919,-1.87 -8.327,-1.87 -2.587,0 -4.458,0.691 -5.585,2.049 -1.126,1.384 -2.049,3.586 -2.792,6.584l-16.036 69.477c-0.206,1.537 -0.36,2.51 -0.462,2.921 -0.41,1.69 -0.717,3.048 -0.974,4.099 -0.665,2.868 -1.05,5.072 -1.204,6.557 0.154,1.794 0.718,3.049 1.691,3.715 0.974,0.667 2.716,1 5.226,1l5.714 -0.154 7.532 -0.154 -3.997 3.485c-3.254,0.64 -6.329,1.203 -9.223,1.716 -2.895,0.486 -5.611,0.897 -8.095,1.255 -5.176,0.692 -8.326,1.025 -9.479,1.051 -1.051,-0.026 -1.947,-0.462 -2.69,-1.358 -0.743,-0.872 -1.128,-1.973 -1.128,-3.254l18.011 -74.37 -0.334 0.026 -45.959 72.986 -5.636 4.458 -6.02 -77.188 -0.256 0.026 -12.348 46.523c-1.691,6.481 -3.869,11.809 -6.482,15.959 -2.639,4.15 -5.507,7.251 -8.608,9.351 -3.1,2.101 -6.148,3.51 -9.196,4.253 -3.023,0.718 -6.047,1.076 -9.096,1.076l-4.15 0c-2.1,0 -3.381,-0.128 -3.893,-0.384l5.79 -11.452zm144.747 -18.138l13.014 -8.403c3.638,-2.356 6.354,-4.713 8.095,-7.07 1.742,-2.331 2.613,-5.328 2.613,-8.992 0,-2.05 -0.461,-3.714 -1.383,-4.996 -0.922,-1.281 -2.074,-1.921 -3.485,-1.921 -3.047,0 -5.788,1.819 -8.222,5.456 -2.46,3.613 -4.586,8.071 -6.38,13.322l-4.252 12.604zm-0.667 5.38c-0.204,1.051 -0.358,2.024 -0.486,2.946 -0.128,0.922 -0.23,1.948 -0.333,3.049 0,3.586 1,6.327 2.998,8.223 0.973,0.897 2.074,1.589 3.382,2.101 1.305,0.486 2.792,0.743 4.43,0.743 5.279,0 14.398,-3.279 27.361,-9.837l-0.588 3.817c-7.353,5.047 -13.937,8.787 -19.753,11.169 -5.79,2.408 -10.759,3.613 -14.859,3.613 -3.944,0 -7.197,-1.102 -9.76,-3.306 -2.536,-2.177 -3.817,-6.302 -3.817,-12.347 0,-5.534 0.794,-11.298 2.409,-17.241 1.587,-5.97 3.637,-11.196 6.148,-15.704 2.485,-4.483 4.995,-7.686 7.48,-9.582 4.56,-3.791 8.685,-6.61 12.399,-8.48 3.74,-1.87 7.174,-2.817 10.324,-2.817 6.635,0 9.966,3.278 9.966,9.812 0,4.841 -1.358,8.761 -4.047,11.758 -2.716,2.998 -8.096,6.866 -16.14,11.606 -8.045,4.739 -13.757,8.222 -17.114,10.477zm89.593 -43.32l3.868 -16.78c0.358,-1.384 0.691,-2.562 1.05,-3.51 0.333,-0.948 0.794,-1.896 1.332,-2.843 0.896,-1.64 2.434,-3.434 4.611,-5.329l7.788 -6.584c3.304,-2.792 6.02,-4.816 8.172,-6.02 2.152,-1.23 4.612,-1.845 7.353,-1.845 1.998,0 4.407,0.333 7.224,0.973l-5.636 9.787 -4.125 -0.461 -3.765 -0.282c-2.998,0 -5.277,0.564 -6.866,1.665 -1.563,1.127 -2.895,2.971 -3.945,5.534 -0.846,2.101 -1.947,5.969 -3.305,11.631l-13.219 60.842c-0.718,2.537 -1.076,4.432 -1.076,5.739 0,2.075 0.871,3.1 2.638,3.1 1.436,0 3.049,-0.41 4.791,-1.204l9.684 -4.791 -0.384 3.203c-3.689,2.792 -8.685,6.225 -14.987,10.298 -6.071,3.894 -9.453,5.892 -10.145,5.995 -0.563,-0.025 -1.255,-0.333 -2.1,-0.948 -0.846,-0.614 -1.282,-1.229 -1.282,-1.819l0.461 -6.2 0.436 -6.993c-7.839,5.815 -13.655,9.913 -17.498,12.322 -3.816,2.408 -6.557,3.613 -8.273,3.638 -3.843,-0.025 -5.765,-3.664 -5.765,-10.965 0,-1.947 0.154,-4.201 0.461,-6.737 0.282,-2.562 0.718,-5.304 1.255,-8.249 1.154,-6.046 2.613,-11.554 4.382,-16.55 1.741,-4.97 3.407,-8.429 5.02,-10.375 1.41,-1.64 3.767,-3.792 7.071,-6.456 3.305,-2.638 6.584,-4.944 9.837,-6.891 3.485,-2.152 6.021,-3.228 7.584,-3.228l2.331 0c0.845,0 1.588,0 2.255,0 0.64,0 1.562,0.103 2.767,0.333zm-10.53 46.19l8.146 -35.046c-3.791,-1.844 -7.224,-2.767 -10.298,-2.767 -2.588,0.205 -4.688,0.999 -6.302,2.433 -1.64,1.435 -3.024,3.51 -4.201,6.277 -1.154,2.741 -2.588,6.969 -4.279,12.681 -2.434,8.71 -3.663,15.627 -3.663,20.777 0,4.508 1.332,6.763 3.971,6.763 1.076,0 3.484,-1.255 7.199,-3.792 3.714,-2.536 6.839,-4.97 9.427,-7.326zm46.45 -33.022c14.833,-8.993 23.236,-13.501 25.234,-13.501 1.819,0 2.716,0.922 2.716,2.766l-0.307 1.742 -0.411 1.615 -11.246 43.192 -0.973 4.483c0.409,2.255 1.614,3.382 3.612,3.382 1.204,0 2.716,-0.359 4.586,-1.051l11.707 -4.944 -0.973 4.432 -10.888 5.917 -11.272 5.841c-2.947,1.41 -4.868,2.102 -5.764,2.102 -2.614,0 -4.1,-1.999 -4.509,-5.995 0,-1.666 0.308,-3.767 0.897,-6.302l4.483 -16.883 5.431 -21.237 0.358 -1.333 0.282 -1.741c0,-1.64 -0.691,-2.485 -2.024,-2.485 -1.613,0 -5.456,1.331 -11.528,3.996l0.589 -3.996zm34.611 -43.936c0.153,1.819 0.512,3.689 1.05,5.585 0.564,1.922 1.383,4.099 2.485,6.507l-11.425 6.353c-2.588,-2.613 -4.279,-6.558 -5.022,-11.784l12.912 -6.661zm50.805 43.346l-10.529 6.302 -1.128 -6.148c-0.307,-1.153 -0.998,-2.177 -2.074,-3.049 -1.051,-0.871 -2.665,-1.306 -4.817,-1.306 -3.843,0 -7.096,2.843 -9.76,8.505 -2.664,5.687 -4.714,12.015 -6.149,18.983 -1.408,6.994 -2.126,11.887 -2.126,14.68 0,6.353 2.895,9.53 8.685,9.53 3.1,0 7.454,-0.973 13.065,-2.895 5.61,-1.921 10.76,-4.022 15.448,-6.328l-0.615 4.432c-2.946,1.639 -5.687,3.151 -8.223,4.483 -2.562,1.358 -4.842,2.51 -6.866,3.458 -2.024,0.949 -4.022,1.819 -5.995,2.588 -1.973,0.768 -3.792,1.41 -5.43,1.896 -3.409,0.948 -6.38,1.435 -8.942,1.435 -3.33,0 -5.943,-0.615 -7.787,-1.87 -0.846,-0.564 -1.615,-1.308 -2.331,-2.255 -0.693,-0.948 -1.23,-2.049 -1.615,-3.304 -0.358,-1.257 -0.666,-2.588 -0.897,-4.023 -0.23,-1.409 -0.333,-3.048 -0.333,-4.893 0,-3.202 0.512,-7.327 1.563,-12.323 1.05,-4.995 2.613,-9.964 4.663,-14.935 2.049,-4.944 4.406,-8.762 7.044,-11.476 1.307,-1.436 3.613,-3.357 6.944,-5.688 3.304,-2.357 6.66,-4.406 10.042,-6.123 3.356,-1.716 5.994,-2.587 7.915,-2.587 3.382,0 5.944,0.973 7.686,2.92 1.717,1.948 2.562,4.611 2.562,7.968l0 2.023zm15.298 0.59c14.833,-8.993 23.236,-13.501 25.234,-13.501 1.819,0 2.716,0.922 2.716,2.766l-0.307 1.742 -0.411 1.615 -11.246 43.192 -0.973 4.483c0.409,2.255 1.613,3.382 3.611,3.382 1.205,0 2.716,-0.359 4.586,-1.051l11.708 -4.944 -0.973 4.432 -10.888 5.917 -11.272 5.841c-2.947,1.41 -4.868,2.102 -5.765,2.102 -2.613,0 -4.099,-1.999 -4.508,-5.995 0,-1.666 0.307,-3.767 0.897,-6.302l4.483 -16.883 5.43 -21.237 0.359 -1.333 0.282 -1.741c0,-1.64 -0.691,-2.485 -2.024,-2.485 -1.613,0 -5.456,1.331 -11.528,3.996l0.589 -3.996zm34.61 -43.936c0.154,1.819 0.512,3.689 1.051,5.585 0.564,1.922 1.383,4.099 2.485,6.507l-11.426 6.353c-2.587,-2.613 -4.278,-6.558 -5.021,-11.784l12.911 -6.661zm29.44 47.625c2.356,-1.255 4.714,-2.562 7.121,-3.895 0.36,-0.205 2.384,-1.409 6.073,-3.612 2.535,-1.511 5.123,-2.998 7.71,-4.508 2.102,-1.204 3.921,-2.204 5.483,-2.998 2.792,-1.46 4.816,-2.177 6.071,-2.177 2.152,0 3.228,1.127 3.228,3.381l-0.205 1.435 -0.179 1.332 -11.041 42.86 -0.512 2.638 -0.385 1.819c0,1.512 0.794,2.434 2.408,2.792 0.436,0 0.923,-0.05 1.46,-0.179 0.539,-0.128 1.358,-0.461 2.511,-0.947l5.789 -2.716 7.942 -3.997 -0.896 3.818c-11.605,7.787 -18.676,12.501 -21.238,14.089 -3.305,2.101 -5.611,3.152 -6.917,3.152 -1.05,0 -1.973,-0.512 -2.792,-1.538 -0.846,-1.025 -1.332,-2.305 -1.486,-3.868 0,-1.589 0.512,-4.202 1.511,-7.864 0.666,-2.204 1.051,-3.536 1.179,-4.049 0.127,-0.486 0.281,-1.024 0.409,-1.562l7.865 -31.357c0.18,-0.999 0.257,-2.409 0.257,-4.201 0,-1.922 -0.718,-2.87 -2.178,-2.87 -2.356,0 -9.376,3.971 -21.083,11.913l-11.4 39.708 -11.299 4.458 13.834 -49.495c0.205,-0.743 0.308,-1.87 0.308,-3.356 0,-1.973 -0.718,-2.946 -2.178,-2.946 -0.947,0 -2.817,0.564 -5.559,1.691 -2.766,1.127 -4.688,2.049 -5.79,2.741l0.308 -4.432 10.195 -5.918 5.995 -3.304c0.949,-0.512 1.922,-1 2.921,-1.461 0.999,-0.487 1.717,-0.82 2.101,-1.024 1.204,-0.487 2.331,-0.743 3.381,-0.743 1.307,0 1.948,1.127 1.948,3.381 0,3.536 -0.948,8.147 -2.87,13.809zm61.642 21.083l13.014 -8.403c3.638,-2.356 6.354,-4.713 8.095,-7.07 1.742,-2.331 2.614,-5.328 2.614,-8.992 0,-2.05 -0.462,-3.714 -1.384,-4.996 -0.922,-1.281 -2.074,-1.921 -3.484,-1.921 -3.048,0 -5.789,1.819 -8.223,5.456 -2.46,3.613 -4.586,8.071 -6.38,13.322l-4.252 12.604zm-0.666 5.38c-0.205,1.051 -0.359,2.024 -0.487,2.946 -0.128,0.922 -0.23,1.948 -0.333,3.049 0,3.586 1,6.327 2.998,8.223 0.973,0.897 2.075,1.589 3.382,2.101 1.306,0.486 2.792,0.743 4.431,0.743 5.278,0 14.398,-3.279 27.36,-9.837l-0.588 3.817c-7.353,5.047 -13.937,8.787 -19.753,11.169 -5.79,2.408 -10.759,3.613 -14.859,3.613 -3.944,0 -7.197,-1.102 -9.76,-3.306 -2.536,-2.177 -3.817,-6.302 -3.817,-12.347 0,-5.534 0.794,-11.298 2.409,-17.241 1.588,-5.97 3.637,-11.196 6.148,-15.704 2.485,-4.483 4.995,-7.686 7.48,-9.582 4.56,-3.791 8.685,-6.61 12.399,-8.48 3.74,-1.87 7.174,-2.817 10.324,-2.817 6.635,0 9.966,3.278 9.966,9.812 0,4.841 -1.358,8.761 -4.047,11.758 -2.716,2.998 -8.096,6.866 -16.14,11.606 -8.045,4.739 -13.757,8.222 -17.113,10.477zm154.059 -70.468c0,5.466 -1.024,10.589 -3.039,15.371 -2.05,4.782 -4.817,8.915 -8.369,12.4 -3.519,3.518 -7.72,6.285 -12.502,8.334 -4.817,2.015 -9.94,3.04 -15.405,3.04 -5.67,0 -10.896,-0.991 -15.678,-2.937 -4.782,-1.981 -8.881,-4.68 -12.297,-8.13 -3.45,-3.415 -6.114,-7.515 -8.062,-12.263 -1.946,-4.748 -2.903,-9.94 -2.903,-15.61 0,-5.465 1.025,-10.588 3.04,-15.302 2.049,-4.748 4.816,-8.882 8.369,-12.365 3.553,-3.518 7.686,-6.251 12.468,-8.266 4.747,-2.015 9.905,-3.007 15.439,-3.007 5.67,0 10.896,0.956 15.678,2.904 4.782,1.947 8.881,4.611 12.297,8.062 3.449,3.449 6.114,7.513 8.061,12.261 1.947,4.749 2.903,9.907 2.903,15.508zm-9.017 0.615c0,-4.748 -0.751,-9.017 -2.255,-12.878 -1.469,-3.859 -3.586,-7.172 -6.251,-9.939 -2.664,-2.767 -5.841,-4.885 -9.495,-6.354 -3.655,-1.468 -7.651,-2.186 -11.921,-2.186 -4.578,0 -8.745,0.786 -12.434,2.392 -3.723,1.605 -6.9,3.791 -9.564,6.592 -2.664,2.801 -4.714,6.046 -6.148,9.735 -1.434,3.689 -2.152,7.652 -2.152,11.819 0,4.679 0.751,8.915 2.255,12.775 1.502,3.859 3.586,7.173 6.25,9.94 2.665,2.767 5.841,4.883 9.496,6.387 3.655,1.503 7.651,2.254 11.921,2.254 4.577,0 8.779,-0.82 12.502,-2.459 3.723,-1.606 6.934,-3.826 9.564,-6.592 2.63,-2.733 4.645,-5.978 6.08,-9.667 1.434,-3.689 2.152,-7.652 2.152,-11.819zm-11.785 18.275c0,0.273 -0.067,0.547 -0.17,0.751 -0.103,0.239 -0.342,0.41 -0.752,0.512 -0.375,0.103 -0.956,0.171 -1.708,0.24 -0.717,0.068 -1.707,0.101 -2.971,0.101 -1.162,0 -2.05,-0.033 -2.767,-0.101 -0.684,-0.069 -1.264,-0.171 -1.709,-0.342 -0.409,-0.171 -0.75,-0.41 -0.99,-0.683 -0.239,-0.308 -0.41,-0.718 -0.547,-1.264l-2.117 -6.832c-0.785,-2.459 -1.742,-4.167 -2.835,-5.123 -1.093,-0.957 -2.767,-1.435 -4.953,-1.435l-2.699 0 0 13.902c0,0.718 -0.307,1.23 -0.853,1.469 -0.581,0.274 -1.879,0.409 -3.963,0.409 -2.083,0 -3.449,-0.135 -4.099,-0.409 -0.683,-0.239 -0.99,-0.751 -0.99,-1.503l0 -35.831c0,-1.469 0.341,-2.596 1.093,-3.416 0.717,-0.854 1.844,-1.263 3.314,-1.263l11.476 0c2.699,0 5.021,0.238 7.07,0.716 2.051,0.444 3.758,1.196 5.193,2.186 1.434,0.991 2.528,2.255 3.278,3.758 0.718,1.503 1.095,3.279 1.095,5.363 0,3.211 -0.889,5.704 -2.597,7.48 -1.742,1.776 -4.065,3.006 -7.002,3.758 1.571,0.512 3.074,1.4 4.474,2.664 1.4,1.263 2.63,3.143 3.621,5.67l2.391 6.353c0.478,1.537 0.717,2.494 0.717,2.87zm-12.433 -27.599c0,-0.752 -0.103,-1.436 -0.274,-2.118 -0.204,-0.649 -0.615,-1.264 -1.16,-1.743 -0.581,-0.512 -1.333,-0.887 -2.255,-1.161 -0.922,-0.273 -2.118,-0.41 -3.519,-0.41l-4.577 0 0 11.273 4.407 0c2.8,0 4.714,-0.547 5.807,-1.606 1.059,-1.093 1.571,-2.494 1.571,-4.235z"/>
        <path class="text-small"
              d="M401.578 519.246l37.927 0 0 26.103 -8.161 0 0 -22.429 -21.608 0 0 12.998c0,3.029 -0.185,5.026 -0.539,5.999 -0.372,0.965 -1.36,1.804 -2.983,2.525 -1.638,0.723 -3.988,1.083 -7.063,1.083 -1.901,0 -4.097,-0.067 -6.569,-0.193l0 -3.683 3.571 0c1.684,0 2.889,-0.092 3.617,-0.286 0.726,-0.184 1.205,-0.487 1.453,-0.898 0.231,-0.41 0.355,-1.745 0.355,-4.001l0 -17.218zm50.12 -4.884l0 -5.035 8.161 0 0 5.035 -8.161 0zm0 31.012l0 -26.128 8.161 0 0 26.128 -8.161 0zm20.51 -26.128l8.16 0 0 11.276c2.597,0 4.42,-0.268 5.471,-0.813 1.036,-0.537 2.565,-2.106 4.605,-4.715 1.608,-2.065 2.907,-3.424 3.895,-4.079 1.005,-0.654 2.149,-1.099 3.447,-1.326 1.315,-0.226 3.399,-0.343 6.259,-0.343l1.639 0 0 3.649 -2.272 -0.024c-2.148,0 -3.524,0.175 -4.126,0.519 -0.633,0.362 -1.607,1.435 -2.907,3.223 -1.236,1.711 -2.364,2.894 -3.4,3.549 -1.019,0.654 -2.61,1.25 -4.76,1.796 3.509,0.512 6.972,2.281 10.371,5.319l8.949 8.097 -8.964 0 -8.826 -8.072c-1.777,-1.636 -3.322,-2.709 -4.635,-3.23 -1.331,-0.52 -2.908,-0.781 -4.746,-0.781l0 12.083 -8.16 0 0 -26.128zm41.326 36.171l-0.927 -4.094c1.791,0.26 3.337,0.394 4.668,0.394 1.823,0 3.274,-0.168 4.359,-0.495 1.096,-0.327 1.992,-0.789 2.688,-1.376 0.51,-0.444 1.344,-1.543 2.488,-3.305 0.154,-0.244 0.385,-0.605 0.726,-1.083l-18.267 -26.212 8.717 0 10.045 15.086c1.313,1.904 2.473,3.918 3.509,6.033 0.942,-1.989 2.056,-3.952 3.354,-5.883l10.261 -15.236 8.146 0 -18.192 26.581c-1.961,2.861 -3.493,4.825 -4.589,5.907 -1.454,1.451 -3.122,2.518 -4.992,3.197 -1.887,0.68 -4.127,1.015 -6.724,1.015 -1.576,0 -3.337,-0.175 -5.27,-0.529zm46.736 -36.171l18.781 0c4.604,0 8.036,0.209 10.292,0.629 2.241,0.419 4.173,1.183 5.78,2.299 1.623,1.124 2.427,2.458 2.427,4.019 0,1.25 -0.479,2.341 -1.423,3.264 -0.958,0.931 -2.381,1.712 -4.295,2.332 2.256,0.412 4.126,1.176 5.624,2.3 1.485,1.116 2.227,2.45 2.227,3.986 -0.294,2.475 -1.933,4.312 -4.884,5.503 -2.952,1.201 -7.251,1.796 -12.875,1.796l-21.654 0 0 -26.128zm8.161 11.025l8.655 0c3.447,0 5.828,-0.101 7.11,-0.293 1.297,-0.203 2.457,-0.597 3.478,-1.201 1.021,-0.596 1.529,-1.317 1.529,-2.157 0,-1.383 -0.896,-2.341 -2.672,-2.885 -1.793,-0.546 -4.854,-0.815 -9.182,-0.815l-8.918 0 0 7.351zm0 11.478l10.711 0c4.606,0 7.773,-0.294 9.491,-0.873 1.714,-0.587 2.61,-1.585 2.704,-3.02 0,-0.831 -0.495,-1.611 -1.485,-2.324 -1.004,-0.713 -2.304,-1.167 -3.895,-1.351 -1.592,-0.194 -4.155,-0.286 -7.68,-0.286l-9.846 0 0 7.854zm71.513 0.352c-3.028,1.402 -5.951,2.383 -8.748,2.962 -2.796,0.58 -5.795,0.865 -9.01,0.865 -5.285,0 -9.352,-0.697 -12.194,-2.098 -2.845,-1.392 -4.267,-3.18 -4.267,-5.354 0,-1.274 0.542,-2.441 1.607,-3.499 1.083,-1.056 2.491,-1.895 4.221,-2.533 1.745,-0.638 3.693,-1.124 5.872,-1.452 1.607,-0.226 4.035,-0.444 7.265,-0.662 6.583,-0.42 11.452,-0.932 14.558,-1.519 0.032,-0.604 0.047,-0.99 0.047,-1.15 0,-1.795 -0.772,-3.062 -2.319,-3.8 -2.086,-0.999 -5.192,-1.494 -9.303,-1.494 -3.848,0 -6.692,0.369 -8.516,1.099 -1.84,0.73 -3.183,2.023 -4.064,3.885l-7.977 -0.605c0.727,-1.854 1.918,-3.356 3.587,-4.496 1.67,-1.142 4.08,-2.014 7.233,-2.635 3.138,-0.613 6.8,-0.924 10.943,-0.924 4.111,0 7.464,0.261 10.046,0.79 2.566,0.528 4.465,1.182 5.671,1.98 1.206,0.797 2.056,1.803 2.551,3.021 0.262,0.755 0.401,2.114 0.401,4.069l0 5.873c0,4.103 0.171,6.696 0.51,7.795 0.326,1.099 1.006,2.148 1.993,3.155l-8.529 0c-0.82,-0.932 -1.347,-2.022 -1.578,-3.273zm-0.649 -9.817c-2.967,0.655 -7.418,1.208 -13.354,1.662 -3.369,0.26 -5.749,0.553 -7.141,0.881 -1.388,0.327 -2.457,0.805 -3.215,1.426 -0.755,0.629 -1.143,1.327 -1.143,2.098 0,1.166 0.82,2.148 2.475,2.929 1.654,0.78 4.064,1.174 7.231,1.174 3.14,0 5.936,-0.37 8.394,-1.116 2.441,-0.739 4.249,-1.754 5.393,-3.037 0.881,-0.999 1.313,-2.467 1.313,-4.406l0.047 -1.611zm24.774 -13.038l37.929 0 0 26.103 -8.161 0 0 -22.429 -21.608 0 0 12.998c0,3.029 -0.185,5.026 -0.54,5.999 -0.371,0.965 -1.359,1.804 -2.982,2.525 -1.639,0.723 -3.989,1.083 -7.063,1.083 -1.902,0 -4.097,-0.067 -6.57,-0.193l0 -3.683 3.572 0c1.683,0 2.889,-0.092 3.616,-0.286 0.726,-0.184 1.206,-0.487 1.454,-0.898 0.231,-0.41 0.353,-1.745 0.353,-4.001l0 -17.218zm49.937 0l8.161 0 0 10.22 10.325 0c6.736,0 11.915,0.704 15.562,2.123 3.632,1.417 5.456,3.373 5.456,5.865 0,2.181 -1.514,4.043 -4.559,5.596 -3.03,1.552 -7.883,2.324 -14.56,2.324l-20.385 0 0 -26.128zm8.161 22.503l8.592 0c5.179,0 8.872,-0.344 11.082,-1.032 2.209,-0.688 3.322,-1.761 3.322,-3.222 0,-1.133 -0.819,-2.14 -2.456,-3.028 -1.639,-0.881 -5.255,-1.327 -10.866,-1.327l-9.674 0 0 8.609zm40.338 -22.503l8.163 0 0 10.873 22.625 0 0 -10.873 8.161 0 0 26.128 -8.161 0 0 -11.579 -22.625 0 0 11.579 -8.163 0 0 -26.128zm48.145 13.064c0,-4.824 2.473,-8.4 7.434,-10.723 4.126,-1.931 9.18,-2.896 15.13,-2.896 6.601,0 12.01,1.176 16.215,3.525 4.186,2.341 6.288,5.588 6.288,9.725 0,3.356 -0.927,5.991 -2.782,7.912 -1.852,1.922 -4.559,3.415 -8.113,4.48 -3.54,1.066 -7.419,1.595 -11.608,1.595 -6.737,0 -12.179,-1.166 -16.334,-3.507 -4.158,-2.342 -6.23,-5.714 -6.23,-10.111zm8.345 0.008c0,3.34 1.345,5.84 4.035,7.493 2.704,1.661 6.088,2.492 10.184,2.492 4.051,0 7.419,-0.831 10.124,-2.5 2.691,-1.67 4.036,-4.212 4.036,-7.627 0,-3.222 -1.361,-5.665 -4.067,-7.317 -2.705,-1.662 -6.073,-2.492 -10.093,-2.492 -4.096,0 -7.48,0.822 -10.184,2.475 -2.69,1.654 -4.035,4.146 -4.035,7.476zm43.043 2.232l0 -4.431 25.225 0 0 4.431 -25.225 0zm40.523 -15.304l33.57 0 0 22.503 5.194 0 0 11.026 -6.677 0 0 -7.401 -37.928 0 0 7.401 -6.677 0 0 -11.026 4.265 0c5.749,-4.237 8.5,-11.739 8.253,-22.503zm6.771 3.674c-0.603,8.483 -3.015,14.76 -7.234,18.829l25.874 0 0 -18.829 -18.64 0zm40.94 -8.558l0 -5.035 8.161 0 0 5.035 -8.161 0zm0 31.012l0 -26.128 8.161 0 0 26.128 -8.161 0zm52.037 -3.273c-3.027,1.402 -5.95,2.383 -8.748,2.962 -2.794,0.58 -5.794,0.865 -9.008,0.865 -5.286,0 -9.352,-0.697 -12.195,-2.098 -2.845,-1.392 -4.267,-3.18 -4.267,-5.354 0,-1.274 0.541,-2.441 1.608,-3.499 1.083,-1.056 2.489,-1.895 4.22,-2.533 1.745,-0.638 3.694,-1.124 5.871,-1.452 1.609,-0.226 4.035,-0.444 7.266,-0.662 6.584,-0.42 11.453,-0.932 14.559,-1.519 0.03,-0.604 0.046,-0.99 0.046,-1.15 0,-1.795 -0.771,-3.062 -2.318,-3.8 -2.087,-0.999 -5.192,-1.494 -9.304,-1.494 -3.847,0 -6.693,0.369 -8.516,1.099 -1.839,0.73 -3.184,2.023 -4.064,3.885l-7.977 -0.605c0.727,-1.854 1.917,-3.356 3.587,-4.496 1.671,-1.142 4.08,-2.014 7.232,-2.635 3.14,-0.613 6.802,-0.924 10.945,-0.924 4.11,0 7.463,0.261 10.044,0.79 2.567,0.528 4.466,1.182 5.672,1.98 1.206,0.797 2.056,1.803 2.551,3.021 0.263,0.755 0.401,2.114 0.401,4.069l0 5.873c0,4.103 0.172,6.696 0.51,7.795 0.326,1.099 1.006,2.148 1.994,3.155l-8.53 0c-0.82,-0.932 -1.346,-2.022 -1.579,-3.273zm-0.648 -9.817c-2.967,0.655 -7.417,1.208 -13.354,1.662 -3.368,0.26 -5.75,0.553 -7.141,0.881 -1.389,0.327 -2.457,0.805 -3.214,1.426 -0.757,0.629 -1.144,1.327 -1.144,2.098 0,1.166 0.821,2.148 2.474,2.929 1.654,0.78 4.064,1.174 7.233,1.174 3.138,0 5.934,-0.37 8.393,-1.116 2.441,-0.739 4.25,-1.754 5.393,-3.037 0.88,-0.999 1.314,-2.467 1.314,-4.406l0.046 -1.611zm20.787 -13.038l27.728 0 0 3.674 -19.567 0 0 22.454 -8.161 0 0 -26.128zm33.817 0l8.161 0 0 10.873 22.627 0 0 -10.873 8.161 0 0 26.128 -8.161 0 0 -11.579 -22.627 0 0 11.579 -8.161 0 0 -26.128zm48.145 13.064c0,-4.824 2.473,-8.4 7.433,-10.723 4.127,-1.931 9.181,-2.896 15.131,-2.896 6.601,0 12.01,1.176 16.213,3.525 4.188,2.341 6.29,5.588 6.29,9.725 0,3.356 -0.928,5.991 -2.782,7.912 -1.853,1.922 -4.559,3.415 -8.113,4.48 -3.54,1.066 -7.419,1.595 -11.608,1.595 -6.738,0 -12.179,-1.166 -16.334,-3.507 -4.159,-2.342 -6.23,-5.714 -6.23,-10.111zm8.345 0.008c0,3.34 1.344,5.84 4.035,7.493 2.704,1.661 6.088,2.492 10.184,2.492 4.051,0 7.419,-0.831 10.123,-2.5 2.691,-1.67 4.035,-4.212 4.035,-7.627 0,-3.222 -1.359,-5.665 -4.066,-7.317 -2.704,-1.662 -6.073,-2.492 -10.092,-2.492 -4.096,0 -7.48,0.822 -10.184,2.475 -2.691,1.654 -4.035,4.146 -4.035,7.476zm77.724 3.491l7.977 0.604c-0.882,2.978 -3.108,5.302 -6.709,6.989 -3.599,1.686 -8.036,2.526 -13.275,2.526 -6.57,0 -11.855,-1.166 -15.842,-3.499 -4.004,-2.333 -5.997,-5.672 -5.997,-10.019 0,-2.818 0.865,-5.278 2.581,-7.392 1.715,-2.106 4.328,-3.692 7.85,-4.741 3.509,-1.057 7.326,-1.586 11.468,-1.586 5.21,0 9.49,0.713 12.799,2.149 3.322,1.434 5.455,3.473 6.383,6.108l-7.884 0.655c-0.755,-1.754 -2.086,-3.072 -4.017,-3.961 -1.917,-0.881 -4.236,-1.326 -6.955,-1.326 -4.111,0 -7.451,0.798 -10.03,2.392 -2.566,1.602 -3.85,4.12 -3.85,7.576 0,3.508 1.237,6.05 3.709,7.636 2.489,1.586 5.719,2.383 9.691,2.383 3.215,0 5.889,-0.528 8.022,-1.595 2.149,-1.056 3.509,-2.693 4.079,-4.899zm10.665 -16.563l38.948 0 0 3.674 -15.394 0 0 22.454 -8.16 0 0 -22.454 -15.394 0 0 -3.674zm46.738 0l8.161 0 0 19.928 22.673 -19.928 8.764 0 0 26.128 -8.163 0 0 -19.802 -22.641 19.802 -8.794 0 0 -26.128zm48.746 0l8.16 0 0 4.933c0,2.131 0.231,3.676 0.711,4.632 0.465,0.956 1.593,1.796 3.385,2.509 1.779,0.713 4.019,1.065 6.723,1.065 3.093,0 7.078,-0.444 11.994,-1.325l0 -11.814 8.159 0 0 26.128 -8.159 0 0 -10.547c-5.022,0.856 -9.722,1.283 -14.08,1.283 -3.663,0 -6.893,-0.503 -9.691,-1.51 -2.799,-1.006 -4.698,-2.24 -5.703,-3.7 -1.004,-1.46 -1.499,-3.062 -1.499,-4.816l0 -6.838zm51.375 0l8.161 0 0 10.873 22.625 0 0 -10.873 8.163 0 0 26.128 -8.163 0 0 -11.579 -22.625 0 0 11.579 -8.161 0 0 -26.128zm51.203 0l8.162 0 0 19.928 22.673 -19.928 8.764 0 0 26.128 -8.162 0 0 -19.802 -22.642 19.802 -8.795 0 0 -26.128zm51.806 0l8.163 0 0 19.928 22.672 -19.928 8.763 0 0 26.128 -8.161 0 0 -19.802 -22.641 19.802 -8.796 0 0 -26.128zm28.193 -9.667l5.563 0c-0.449,2.073 -1.84,3.667 -4.159,4.775 -2.318,1.116 -5.392,1.67 -9.241,1.67 -3.865,0 -6.955,-0.554 -9.257,-1.653 -2.303,-1.108 -3.695,-2.703 -4.143,-4.792l5.565 0c0.416,1.133 1.266,1.98 2.519,2.534 1.251,0.562 2.952,0.839 5.07,0.839 2.457,0 4.311,-0.269 5.562,-0.813 1.253,-0.538 2.103,-1.393 2.521,-2.56zm49.472 9.667l8.16 0 0 22.503 22.628 0 0 -22.503 8.158 0 0 22.503 5.287 0 0 11.026 -6.677 0 0 -7.401 -37.556 0 0 -26.128zm84.821 17.67l8.441 0.604c-1.316,2.661 -3.773,4.733 -7.358,6.201 -3.587,1.468 -8.161,2.207 -13.742,2.207 -7.016,0 -12.58,-1.175 -16.691,-3.524 -4.11,-2.341 -6.167,-5.639 -6.167,-9.876 0,-4.38 2.072,-7.786 6.23,-10.203 4.157,-2.426 9.55,-3.634 16.18,-3.634 6.414,0 11.656,1.184 15.72,3.559 4.064,2.374 6.104,5.714 6.104,10.018 0,0.26 -0.016,0.654 -0.045,1.175l-35.841 0c0.307,2.861 1.792,5.059 4.48,6.578 2.675,1.519 6.029,2.282 10.03,2.282 2.984,0 5.534,-0.428 7.636,-1.284 2.118,-0.855 3.787,-2.223 5.023,-4.103zm-26.706 -7.098l26.799 0c-0.356,-2.199 -1.39,-3.843 -3.076,-4.943 -2.58,-1.703 -5.95,-2.559 -10.076,-2.559 -3.739,0 -6.879,0.681 -9.429,2.04 -2.534,1.359 -3.942,3.179 -4.218,5.462zm45.452 -10.572l8.163 0 0 10.873 22.625 0 0 -10.873 8.162 0 0 26.128 -8.162 0 0 -11.579 -22.625 0 0 11.579 -8.163 0 0 -26.128zm46.94 0l38.947 0 0 3.674 -15.394 0 0 22.454 -8.159 0 0 -22.454 -15.394 0 0 -3.674zm46.736 36.147l0 -36.147 7.42 0 0 3.431c1.745,-1.325 3.725,-2.324 5.935,-2.987 2.195,-0.663 4.868,-0.999 8.005,-0.999 4.111,0 7.729,0.572 10.866,1.72 3.137,1.142 5.502,2.761 7.109,4.842 1.592,2.09 2.397,4.371 2.397,6.863 0,2.66 -0.882,5.061 -2.645,7.2 -1.761,2.132 -4.327,3.767 -7.695,4.908 -3.355,1.133 -6.893,1.704 -10.602,1.704 -2.721,0 -5.163,-0.311 -7.31,-0.932 -2.166,-0.621 -3.927,-1.401 -5.317,-2.349l0 12.746 -8.163 0zm7.42 -22.923c0,3.347 1.252,5.822 3.741,7.425 2.504,1.602 5.533,2.408 9.087,2.408 3.616,0 6.707,-0.831 9.274,-2.492 2.579,-1.661 3.864,-4.228 3.864,-7.711 0,-3.323 -1.253,-5.807 -3.773,-7.46 -2.519,-1.652 -5.518,-2.475 -9.008,-2.475 -3.463,0 -6.524,0.881 -9.182,2.635 -2.675,1.762 -4.003,4.312 -4.003,7.67z"/>
        <polygon class="logo-l" fill="var(--light-blue)"
                 points="458.775,35.251 594.807,35.225 790.762,419.62 660.369,419.682 527.512,167.887 327.66,543.314 185.423,543.964 "/>
        <path class="logo-d" fill="var(--dark-blue)"
              d="M612.71 120.67l96.46 1.15 162.37 296.98 58.19-0.54 0 64.84-534.18 0-0.34-63.56 56.51-0.7 160.99-298.17zm50.21 94.24l111.38 204.78-111.38 0-112.54 0 112.54-204.78z"/>
        <polygon class="Logo-c" fill="var(--light-blue)"
                 points="929.732,149.63 1000.173,149.63 1000.173,372.857 1131.335,372.857 1131.335,149.63 1206.148,149.63 1206.148,372.857 1280.031,372.857 1280.031,456.619 1214.318,456.619 1214.318,418.254 929.732,418.254 "/>
        <path class="text-enter" fill="var(--light-blue)"
              d="M1684.655 404.369l0 -122.434 23.096 0 0 11.624c5.439,-4.491 11.596,-7.874 18.48,-10.117 6.83,-2.245 15.155,-3.382 24.925,-3.382 12.799,0 24.058,1.932 33.827,5.826 9.768,3.865 17.131,9.349 22.134,16.397 4.958,7.077 7.46,14.808 7.46,23.248 0,9.009 -2.744,17.138 -8.23,24.385 -5.486,7.219 -13.473,12.761 -23.961,16.626 -10.445,3.837 -21.464,5.769 -33.011,5.769 -8.47,0 -16.071,-1.051 -22.761,-3.156 -6.737,-2.102 -12.223,-4.745 -16.553,-7.956l0 43.17 -25.406 0zm33.741 -77.644c0,11.339 3.51,19.723 10.484,25.152 7.018,5.429 15.51,8.156 25.475,8.156 10.138,0 18.802,-2.813 25.994,-8.441 7.236,-5.627 10.833,-14.322 10.833,-26.118 0,-11.252 -3.51,-19.667 -10.573,-25.265 -7.061,-5.598 -15.466,-8.386 -25.257,-8.386 -9.707,0 -18.284,2.985 -25.735,8.927 -7.495,5.967 -11.221,14.607 -11.221,25.975zm-138.399 -44.79l81.201 0 0 12.448 -32.095 0 0 76.052 -17.013 0 0 -76.052 -32.093 0 0 -12.448zm-128.118 0l22.054 0 0 36.833 61.154 0 0 -36.833 22.053 0 0 88.5 -22.053 0 0 -39.22 -61.154 0 0 39.22 -22.054 0 0 -88.5zm-58.827 59.853l23.656 2.046c-3.683,9.01 -10.571,16.028 -20.623,21.001 -10.051,4.974 -22.876,7.476 -38.515,7.476 -19.668,0 -35.266,-3.979 -46.789,-11.936 -11.526,-7.93 -17.288,-19.098 -17.288,-33.45 0,-14.837 5.805,-26.375 17.458,-34.561 11.657,-8.213 26.776,-12.304 45.361,-12.304 17.981,0 32.668,4.007 44.061,12.048 11.396,8.043 17.113,19.355 17.113,33.934 0,0.883 -0.041,2.218 -0.128,3.98l-100.471 0c0.866,9.692 5.027,17.137 12.565,22.281 7.495,5.145 16.897,7.73 28.118,7.73 8.36,0 15.51,-1.449 21.402,-4.348 5.935,-2.899 10.614,-7.532 14.08,-13.897zm-74.866 -24.044l75.125 0c-0.996,-7.446 -3.897,-13.017 -8.62,-16.739 -7.234,-5.77 -16.681,-8.668 -28.249,-8.668 -10.481,0 -19.278,2.301 -26.427,6.905 -7.104,4.606 -11.047,10.772 -11.829,18.502z"/>
    </symbol>

    <symbol id="clinic-medical" viewBox="0 0 50 50">
        <rect fill="none" width="50" height="50"/>
        <rect fill="var(--light-text)" x="1" y="1" width="48" height="48" rx="7.2947" ry="7.2947"/>
        <path fill="var(--dark-blue)"
              d="M25.021 10.2067c0.6245,0.0044 13.2443,10.9826 16.3189,13.6326 0.6247,0.5386 0.5001,0.665 0.5001,1.1911l0 17.9789c0,0.8199 -0.6708,1.4907 -1.4906,1.4907l-30.7005 0c-0.8199,0 -1.4907,-0.6708 -1.4907,-1.4907 0,-5.9962 0,-11.9924 0,-17.9886 0,-0.5164 -0.1155,-0.6494 0.5127,-1.2005 3.1061,-2.7241 15.4637,-13.6197 16.3501,-13.6135z"/>
        <rect fill="var(--light-text)" transform="matrix(1.03695E-14 -0.391528 0.729326 1.93157E-14 16.7273 34.8957)" width="18.1106" height="22.6858" rx="3.591" ry="3.591"/>
        <path fill="var(--dark-blue)" d="M5.5259 22.0047l18.6382 -16.2069c0.4597,-0.3998 1.2158,-0.3966 1.68,0.0071l18.6218 16.1927c0.4642,0.4037 0.4679,1.0611 0.0081,1.4609 -0.3762,0.3271 -0.7435,0.6488 -1.1036,0.9659l-17.5263 -15.2401c-0.4642,-0.4037 -1.2203,-0.4069 -1.68,-0.007l-17.5345 15.2471c-0.3575,-0.3148 -0.7221,-0.6341 -1.0955,-0.9588 -0.4642,-0.4036 -0.4679,-1.0611 -0.0082,-1.4609z"/>
        <rect fill="var(--light-text)" x="21.4546" y="23.0776" width="7.0908" height="16.5453" rx="1.406" ry="2.619"/>
    </symbol>

    <symbol id="envelope-square" viewBox="0 0 50 50" style="fill-rule:evenodd;">
        <rect fill="none"  width="50" height="50"/>
        <path fill="var(--light-text)"
              d="M8.2947 1l33.4106 0c4.0121,0 7.2947,3.2826 7.2947,7.2947l0 33.4106c0,4.0121 -3.2826,7.2947 -7.2947,7.2947l-33.4106 0c-4.0121,0 -7.2947,-3.2826 -7.2947,-7.2947l0 -33.4106c0,-4.0121 3.2826,-7.2947 7.2947,-7.2947zm2.3637 10.6705l28.6165 0c1.4482,0 2.4708,1.1151 2.4509,2.563 -0.0094,0.6767 -0.0047,1.3537 -0.0281,2.03 -0.0368,1.0689 -15.3024,11.9611 -16.6331,11.9133 -1.3307,-0.0478 -16.7538,-10.8355 -16.743,-11.4656l0.0424 -2.4712c0.0248,-1.448 0.8463,-2.5695 2.2944,-2.5695zm28.3902 26.7366l-28.26 -0.0521c-1.5594,-0.0029 -2.4985,-0.9279 -2.5004,-2.4876l-0.0184 -14.6499c0,-0.0342 13.8834,10.4756 16.6845,10.5382 2.801,0.0626 16.7711,-11.1067 16.7705,-10.5169l-0.0139 14.4675c-0.0015,1.5593 -1.103,2.7037 -2.6623,2.7008z"/>
    </symbol>

    <symbol id="phone-square-alt" viewBox="0 0 50 50">
        <rect fill="none" width="50" height="50"/>
        <path fill="var(--light-text)" d="M41.7053 1l-33.4106 0c-4.0121,0 -7.2947,3.2825 -7.2947,7.2947l0 33.4106c0,4.0121 3.2826,7.2947 7.2947,7.2947l33.4106 0c4.0122,0 7.2947,-3.2826 7.2947,-7.2947l0 -33.4106c0,-4.0122 -3.2825,-7.2947 -7.2947,-7.2947zm-32.1837 8.6595c2.2763,-0.4944 4.613,-0.9752 6.8892,-1.4696 1.0263,-0.1514 1.226,0.0813 1.8889,1.0929 1.1081,1.9724 1.8009,4.4832 3.1641,7.2434 0.2516,0.5094 0.1357,1.4246 -0.4326,1.7699 -1.5715,0.9551 -4.2505,2.5773 -3.8266,3.4252 1.8004,3.6005 4.6051,8.4609 11.4942,11.5362 1.4895,-1.1361 2.3807,-2.9375 3.1947,-3.5722 0.2294,-0.1085 0.7504,-1.1463 2.0373,-0.8336 1.7952,0.7081 5.2516,2.3475 7.1033,3.1585 1.0016,0.4685 1.3207,0.7476 1.1067,1.9946 -0.4291,2.2211 -1.1945,5.6348 -1.4298,6.7231 -0.1134,0.3908 -0.1582,1.3539 -1.6681,1.3411 -17.4781,-1.3497 -29.9573,-12.3402 -30.7212,-30.8244 0.1589,-0.7456 0.5735,-1.2587 1.1999,-1.5851z"/>
    </symbol>

    <symbol id="facebook" viewBox="0 0 50 50" style="fill-rule:evenodd;">
        <rect fill="none" width="50" height="50"/>
        <path fill="var(--light-text)" d="M8.2948 1l33.4104 0c4.0122,0 7.2948,3.2826 7.2948,7.2948l0 33.4104c0,4.0122 -3.2826,7.2948 -7.2948,7.2948l-33.4104 0c-4.0122,0 -7.2948,-3.2826 -7.2948,-7.2948l0 -33.4104c0,-4.0122 3.2826,-7.2948 7.2948,-7.2948zm13.2389 18.6035l4.1701 0 0 -2.149c0,-2.396 0.256,-4.1884 0.7681,-5.3681 0.5122,-1.1889 1.4541,-2.1491 2.8258,-2.8898 1.3809,-0.7408 3.1184,-1.1157 5.2218,-1.1157 2.149,0 4.2615,0.3201 6.3282,0.9602l-0.9602 5.2309c-1.2254,-0.2835 -2.4051,-0.4298 -3.5391,-0.4298 -1.1157,0 -1.9112,0.2561 -2.3959,0.7682 -0.4847,0.5121 -0.7316,1.4997 -0.7316,2.9629l0 2.0302 5.6515 0 0 5.9259 -5.6515 0 0 22.5513 -7.5171 0 0 -22.5513 -4.1701 0 0 -5.9259z"/>
    </symbol>

    <symbol id="instagram" viewBox="0 0 50 50">
        <rect fill="none" width="50" height="50"/>
        <path fill="var(--light-text)"
              d="M8.2946 1l33.4108 0c4.012,0 7.2946,3.2826 7.2946,7.2946l0 33.4108c0,4.012 -3.2826,7.2946 -7.2946,7.2946l-33.4108 0c-4.012,0 -7.2946,-3.2826 -7.2946,-7.2946l0 -33.4108c0,-4.012 3.2826,-7.2946 7.2946,-7.2946z"/>
        <rect fill="var(--dark-blue)" x="3.5" y="3.5" width="43" height="43" rx="6.5346" ry="6.5346"/>
        <rect fill="var(--light-text)" x="6" y="6" width="38" height="38" rx="5.7748" ry="5.7748"/>
        <path fill="var(--dark-blue)" d="M37.8836 9.2594c1.5464,0 2.8,1.2536 2.8,2.8 0,1.5464 -1.2536,2.8 -2.8,2.8 -1.5464,0 -2.8,-1.2536 -2.8,-2.8 0,-1.5464 1.2536,-2.8 2.8,-2.8z"/>
        <circle fill="var(--dark-blue)" cx="25" cy="25" r="13"/>
        <circle fill="var(--light-text)" cx="25" cy="25" r="10"/>
    </symbol>

    <symbol id="logo-footer" viewBox="0 0 2000 800" style="fill-rule:evenodd;">
        <path class="text-small" fill="var(--light-text)"
              d="M401.578 519.246l37.927 0 0 26.103 -8.161 0 0 -22.429 -21.608 0 0 12.998c0,3.029 -0.185,5.026 -0.539,5.999 -0.372,0.965 -1.36,1.804 -2.983,2.525 -1.638,0.723 -3.988,1.083 -7.063,1.083 -1.901,0 -4.097,-0.067 -6.569,-0.193l0 -3.683 3.571 0c1.684,0 2.889,-0.092 3.617,-0.286 0.726,-0.184 1.205,-0.487 1.453,-0.898 0.231,-0.41 0.355,-1.745 0.355,-4.001l0 -17.218zm50.12 -4.884l0 -5.035 8.161 0 0 5.035 -8.161 0zm0 31.012l0 -26.128 8.161 0 0 26.128 -8.161 0zm20.51 -26.128l8.16 0 0 11.276c2.597,0 4.42,-0.268 5.471,-0.813 1.036,-0.537 2.565,-2.106 4.605,-4.715 1.608,-2.065 2.907,-3.424 3.895,-4.079 1.005,-0.654 2.149,-1.099 3.447,-1.326 1.315,-0.226 3.399,-0.343 6.259,-0.343l1.639 0 0 3.649 -2.272 -0.024c-2.148,0 -3.524,0.175 -4.126,0.519 -0.633,0.362 -1.607,1.435 -2.907,3.223 -1.236,1.711 -2.364,2.894 -3.4,3.549 -1.019,0.654 -2.61,1.25 -4.76,1.796 3.509,0.512 6.972,2.281 10.371,5.319l8.949 8.097 -8.964 0 -8.826 -8.072c-1.777,-1.636 -3.322,-2.709 -4.635,-3.23 -1.331,-0.52 -2.908,-0.781 -4.746,-0.781l0 12.083 -8.16 0 0 -26.128zm41.326 36.171l-0.927 -4.094c1.791,0.26 3.337,0.394 4.668,0.394 1.823,0 3.274,-0.168 4.359,-0.495 1.096,-0.327 1.992,-0.789 2.688,-1.376 0.51,-0.444 1.344,-1.543 2.488,-3.305 0.154,-0.244 0.385,-0.605 0.726,-1.083l-18.267 -26.212 8.717 0 10.045 15.086c1.313,1.904 2.473,3.918 3.509,6.033 0.942,-1.989 2.056,-3.952 3.354,-5.883l10.261 -15.236 8.146 0 -18.192 26.581c-1.961,2.861 -3.493,4.825 -4.589,5.907 -1.454,1.451 -3.122,2.518 -4.992,3.197 -1.887,0.68 -4.127,1.015 -6.724,1.015 -1.576,0 -3.337,-0.175 -5.27,-0.529zm46.736 -36.171l18.781 0c4.604,0 8.036,0.209 10.292,0.629 2.241,0.419 4.173,1.183 5.78,2.299 1.623,1.124 2.427,2.458 2.427,4.019 0,1.25 -0.479,2.341 -1.423,3.264 -0.958,0.931 -2.381,1.712 -4.295,2.332 2.256,0.412 4.126,1.176 5.624,2.3 1.485,1.116 2.227,2.45 2.227,3.986 -0.294,2.475 -1.933,4.312 -4.884,5.503 -2.952,1.201 -7.251,1.796 -12.875,1.796l-21.654 0 0 -26.128zm8.161 11.025l8.655 0c3.447,0 5.828,-0.101 7.11,-0.293 1.297,-0.203 2.457,-0.597 3.478,-1.201 1.021,-0.596 1.529,-1.317 1.529,-2.157 0,-1.383 -0.896,-2.341 -2.672,-2.885 -1.793,-0.546 -4.854,-0.815 -9.182,-0.815l-8.918 0 0 7.351zm0 11.478l10.711 0c4.606,0 7.773,-0.294 9.491,-0.873 1.714,-0.587 2.61,-1.585 2.704,-3.02 0,-0.831 -0.495,-1.611 -1.485,-2.324 -1.004,-0.713 -2.304,-1.167 -3.895,-1.351 -1.592,-0.194 -4.155,-0.286 -7.68,-0.286l-9.846 0 0 7.854zm71.513 0.352c-3.028,1.402 -5.951,2.383 -8.748,2.962 -2.796,0.58 -5.795,0.865 -9.01,0.865 -5.285,0 -9.352,-0.697 -12.194,-2.098 -2.845,-1.392 -4.267,-3.18 -4.267,-5.354 0,-1.274 0.542,-2.441 1.607,-3.499 1.083,-1.056 2.491,-1.895 4.221,-2.533 1.745,-0.638 3.693,-1.124 5.872,-1.452 1.607,-0.226 4.035,-0.444 7.265,-0.662 6.583,-0.42 11.452,-0.932 14.558,-1.519 0.032,-0.604 0.047,-0.99 0.047,-1.15 0,-1.795 -0.772,-3.062 -2.319,-3.8 -2.086,-0.999 -5.192,-1.494 -9.303,-1.494 -3.848,0 -6.692,0.369 -8.516,1.099 -1.84,0.73 -3.183,2.023 -4.064,3.885l-7.977 -0.605c0.727,-1.854 1.918,-3.356 3.587,-4.496 1.67,-1.142 4.08,-2.014 7.233,-2.635 3.138,-0.613 6.8,-0.924 10.943,-0.924 4.111,0 7.464,0.261 10.046,0.79 2.566,0.528 4.465,1.182 5.671,1.98 1.206,0.797 2.056,1.803 2.551,3.021 0.262,0.755 0.401,2.114 0.401,4.069l0 5.873c0,4.103 0.171,6.696 0.51,7.795 0.326,1.099 1.006,2.148 1.993,3.155l-8.529 0c-0.82,-0.932 -1.347,-2.022 -1.578,-3.273zm-0.649 -9.817c-2.967,0.655 -7.418,1.208 -13.354,1.662 -3.369,0.26 -5.749,0.553 -7.141,0.881 -1.388,0.327 -2.457,0.805 -3.215,1.426 -0.755,0.629 -1.143,1.327 -1.143,2.098 0,1.166 0.82,2.148 2.475,2.929 1.654,0.78 4.064,1.174 7.231,1.174 3.14,0 5.936,-0.37 8.394,-1.116 2.441,-0.739 4.249,-1.754 5.393,-3.037 0.881,-0.999 1.313,-2.467 1.313,-4.406l0.047 -1.611zm24.774 -13.038l37.929 0 0 26.103 -8.161 0 0 -22.429 -21.608 0 0 12.998c0,3.029 -0.185,5.026 -0.54,5.999 -0.371,0.965 -1.359,1.804 -2.982,2.525 -1.639,0.723 -3.989,1.083 -7.063,1.083 -1.902,0 -4.097,-0.067 -6.57,-0.193l0 -3.683 3.572 0c1.683,0 2.889,-0.092 3.616,-0.286 0.726,-0.184 1.206,-0.487 1.454,-0.898 0.231,-0.41 0.353,-1.745 0.353,-4.001l0 -17.218zm49.937 0l8.161 0 0 10.22 10.325 0c6.736,0 11.915,0.704 15.562,2.123 3.632,1.417 5.456,3.373 5.456,5.865 0,2.181 -1.514,4.043 -4.559,5.596 -3.03,1.552 -7.883,2.324 -14.56,2.324l-20.385 0 0 -26.128zm8.161 22.503l8.592 0c5.179,0 8.872,-0.344 11.082,-1.032 2.209,-0.688 3.322,-1.761 3.322,-3.222 0,-1.133 -0.819,-2.14 -2.456,-3.028 -1.639,-0.881 -5.255,-1.327 -10.866,-1.327l-9.674 0 0 8.609zm40.338 -22.503l8.163 0 0 10.873 22.625 0 0 -10.873 8.161 0 0 26.128 -8.161 0 0 -11.579 -22.625 0 0 11.579 -8.163 0 0 -26.128zm48.145 13.064c0,-4.824 2.473,-8.4 7.434,-10.723 4.126,-1.931 9.18,-2.896 15.13,-2.896 6.601,0 12.01,1.176 16.215,3.525 4.186,2.341 6.288,5.588 6.288,9.725 0,3.356 -0.927,5.991 -2.782,7.912 -1.852,1.922 -4.559,3.415 -8.113,4.48 -3.54,1.066 -7.419,1.595 -11.608,1.595 -6.737,0 -12.179,-1.166 -16.334,-3.507 -4.158,-2.342 -6.23,-5.714 -6.23,-10.111zm8.345 0.008c0,3.34 1.345,5.84 4.035,7.493 2.704,1.661 6.088,2.492 10.184,2.492 4.051,0 7.419,-0.831 10.124,-2.5 2.691,-1.67 4.036,-4.212 4.036,-7.627 0,-3.222 -1.361,-5.665 -4.067,-7.317 -2.705,-1.662 -6.073,-2.492 -10.093,-2.492 -4.096,0 -7.48,0.822 -10.184,2.475 -2.69,1.654 -4.035,4.146 -4.035,7.476zm43.043 2.232l0 -4.431 25.225 0 0 4.431 -25.225 0zm40.523 -15.304l33.57 0 0 22.503 5.194 0 0 11.026 -6.677 0 0 -7.401 -37.928 0 0 7.401 -6.677 0 0 -11.026 4.265 0c5.749,-4.237 8.5,-11.739 8.253,-22.503zm6.771 3.674c-0.603,8.483 -3.015,14.76 -7.234,18.829l25.874 0 0 -18.829 -18.64 0zm40.94 -8.558l0 -5.035 8.161 0 0 5.035 -8.161 0zm0 31.012l0 -26.128 8.161 0 0 26.128 -8.161 0zm52.037 -3.273c-3.027,1.402 -5.95,2.383 -8.748,2.962 -2.794,0.58 -5.794,0.865 -9.008,0.865 -5.286,0 -9.352,-0.697 -12.195,-2.098 -2.845,-1.392 -4.267,-3.18 -4.267,-5.354 0,-1.274 0.541,-2.441 1.608,-3.499 1.083,-1.056 2.489,-1.895 4.22,-2.533 1.745,-0.638 3.694,-1.124 5.871,-1.452 1.609,-0.226 4.035,-0.444 7.266,-0.662 6.584,-0.42 11.453,-0.932 14.559,-1.519 0.03,-0.604 0.046,-0.99 0.046,-1.15 0,-1.795 -0.771,-3.062 -2.318,-3.8 -2.087,-0.999 -5.192,-1.494 -9.304,-1.494 -3.847,0 -6.693,0.369 -8.516,1.099 -1.839,0.73 -3.184,2.023 -4.064,3.885l-7.977 -0.605c0.727,-1.854 1.917,-3.356 3.587,-4.496 1.671,-1.142 4.08,-2.014 7.232,-2.635 3.14,-0.613 6.802,-0.924 10.945,-0.924 4.11,0 7.463,0.261 10.044,0.79 2.567,0.528 4.466,1.182 5.672,1.98 1.206,0.797 2.056,1.803 2.551,3.021 0.263,0.755 0.401,2.114 0.401,4.069l0 5.873c0,4.103 0.172,6.696 0.51,7.795 0.326,1.099 1.006,2.148 1.994,3.155l-8.53 0c-0.82,-0.932 -1.346,-2.022 -1.579,-3.273zm-0.648 -9.817c-2.967,0.655 -7.417,1.208 -13.354,1.662 -3.368,0.26 -5.75,0.553 -7.141,0.881 -1.389,0.327 -2.457,0.805 -3.214,1.426 -0.757,0.629 -1.144,1.327 -1.144,2.098 0,1.166 0.821,2.148 2.474,2.929 1.654,0.78 4.064,1.174 7.233,1.174 3.138,0 5.934,-0.37 8.393,-1.116 2.441,-0.739 4.25,-1.754 5.393,-3.037 0.88,-0.999 1.314,-2.467 1.314,-4.406l0.046 -1.611zm20.787 -13.038l27.728 0 0 3.674 -19.567 0 0 22.454 -8.161 0 0 -26.128zm33.817 0l8.161 0 0 10.873 22.627 0 0 -10.873 8.161 0 0 26.128 -8.161 0 0 -11.579 -22.627 0 0 11.579 -8.161 0 0 -26.128zm48.145 13.064c0,-4.824 2.473,-8.4 7.433,-10.723 4.127,-1.931 9.181,-2.896 15.131,-2.896 6.601,0 12.01,1.176 16.213,3.525 4.188,2.341 6.29,5.588 6.29,9.725 0,3.356 -0.928,5.991 -2.782,7.912 -1.853,1.922 -4.559,3.415 -8.113,4.48 -3.54,1.066 -7.419,1.595 -11.608,1.595 -6.738,0 -12.179,-1.166 -16.334,-3.507 -4.159,-2.342 -6.23,-5.714 -6.23,-10.111zm8.345 0.008c0,3.34 1.344,5.84 4.035,7.493 2.704,1.661 6.088,2.492 10.184,2.492 4.051,0 7.419,-0.831 10.123,-2.5 2.691,-1.67 4.035,-4.212 4.035,-7.627 0,-3.222 -1.359,-5.665 -4.066,-7.317 -2.704,-1.662 -6.073,-2.492 -10.092,-2.492 -4.096,0 -7.48,0.822 -10.184,2.475 -2.691,1.654 -4.035,4.146 -4.035,7.476zm77.724 3.491l7.977 0.604c-0.882,2.978 -3.108,5.302 -6.709,6.989 -3.599,1.686 -8.036,2.526 -13.275,2.526 -6.57,0 -11.855,-1.166 -15.842,-3.499 -4.004,-2.333 -5.997,-5.672 -5.997,-10.019 0,-2.818 0.865,-5.278 2.581,-7.392 1.715,-2.106 4.328,-3.692 7.85,-4.741 3.509,-1.057 7.326,-1.586 11.468,-1.586 5.21,0 9.49,0.713 12.799,2.149 3.322,1.434 5.455,3.473 6.383,6.108l-7.884 0.655c-0.755,-1.754 -2.086,-3.072 -4.017,-3.961 -1.917,-0.881 -4.236,-1.326 -6.955,-1.326 -4.111,0 -7.451,0.798 -10.03,2.392 -2.566,1.602 -3.85,4.12 -3.85,7.576 0,3.508 1.237,6.05 3.709,7.636 2.489,1.586 5.719,2.383 9.691,2.383 3.215,0 5.889,-0.528 8.022,-1.595 2.149,-1.056 3.509,-2.693 4.079,-4.899zm10.665 -16.563l38.948 0 0 3.674 -15.394 0 0 22.454 -8.16 0 0 -22.454 -15.394 0 0 -3.674zm46.738 0l8.161 0 0 19.928 22.673 -19.928 8.764 0 0 26.128 -8.163 0 0 -19.802 -22.641 19.802 -8.794 0 0 -26.128zm48.746 0l8.16 0 0 4.933c0,2.131 0.231,3.676 0.711,4.632 0.465,0.956 1.593,1.796 3.385,2.509 1.779,0.713 4.019,1.065 6.723,1.065 3.093,0 7.078,-0.444 11.994,-1.325l0 -11.814 8.159 0 0 26.128 -8.159 0 0 -10.547c-5.022,0.856 -9.722,1.283 -14.08,1.283 -3.663,0 -6.893,-0.503 -9.691,-1.51 -2.799,-1.006 -4.698,-2.24 -5.703,-3.7 -1.004,-1.46 -1.499,-3.062 -1.499,-4.816l0 -6.838zm51.375 0l8.161 0 0 10.873 22.625 0 0 -10.873 8.163 0 0 26.128 -8.163 0 0 -11.579 -22.625 0 0 11.579 -8.161 0 0 -26.128zm51.203 0l8.162 0 0 19.928 22.673 -19.928 8.764 0 0 26.128 -8.162 0 0 -19.802 -22.642 19.802 -8.795 0 0 -26.128zm51.806 0l8.163 0 0 19.928 22.672 -19.928 8.763 0 0 26.128 -8.161 0 0 -19.802 -22.641 19.802 -8.796 0 0 -26.128zm28.193 -9.667l5.563 0c-0.449,2.073 -1.84,3.667 -4.159,4.775 -2.318,1.116 -5.392,1.67 -9.241,1.67 -3.865,0 -6.955,-0.554 -9.257,-1.653 -2.303,-1.108 -3.695,-2.703 -4.143,-4.792l5.565 0c0.416,1.133 1.266,1.98 2.519,2.534 1.251,0.562 2.952,0.839 5.07,0.839 2.457,0 4.311,-0.269 5.562,-0.813 1.253,-0.538 2.103,-1.393 2.521,-2.56zm49.472 9.667l8.16 0 0 22.503 22.628 0 0 -22.503 8.158 0 0 22.503 5.287 0 0 11.026 -6.677 0 0 -7.401 -37.556 0 0 -26.128zm84.821 17.67l8.441 0.604c-1.316,2.661 -3.773,4.733 -7.358,6.201 -3.587,1.468 -8.161,2.207 -13.742,2.207 -7.016,0 -12.58,-1.175 -16.691,-3.524 -4.11,-2.341 -6.167,-5.639 -6.167,-9.876 0,-4.38 2.072,-7.786 6.23,-10.203 4.157,-2.426 9.55,-3.634 16.18,-3.634 6.414,0 11.656,1.184 15.72,3.559 4.064,2.374 6.104,5.714 6.104,10.018 0,0.26 -0.016,0.654 -0.045,1.175l-35.841 0c0.307,2.861 1.792,5.059 4.48,6.578 2.675,1.519 6.029,2.282 10.03,2.282 2.984,0 5.534,-0.428 7.636,-1.284 2.118,-0.855 3.787,-2.223 5.023,-4.103zm-26.706 -7.098l26.799 0c-0.356,-2.199 -1.39,-3.843 -3.076,-4.943 -2.58,-1.703 -5.95,-2.559 -10.076,-2.559 -3.739,0 -6.879,0.681 -9.429,2.04 -2.534,1.359 -3.942,3.179 -4.218,5.462zm45.452 -10.572l8.163 0 0 10.873 22.625 0 0 -10.873 8.162 0 0 26.128 -8.162 0 0 -11.579 -22.625 0 0 11.579 -8.163 0 0 -26.128zm46.94 0l38.947 0 0 3.674 -15.394 0 0 22.454 -8.159 0 0 -22.454 -15.394 0 0 -3.674zm46.736 36.147l0 -36.147 7.42 0 0 3.431c1.745,-1.325 3.725,-2.324 5.935,-2.987 2.195,-0.663 4.868,-0.999 8.005,-0.999 4.111,0 7.729,0.572 10.866,1.72 3.137,1.142 5.502,2.761 7.109,4.842 1.592,2.09 2.397,4.371 2.397,6.863 0,2.66 -0.882,5.061 -2.645,7.2 -1.761,2.132 -4.327,3.767 -7.695,4.908 -3.355,1.133 -6.893,1.704 -10.602,1.704 -2.721,0 -5.163,-0.311 -7.31,-0.932 -2.166,-0.621 -3.927,-1.401 -5.317,-2.349l0 12.746 -8.163 0zm7.42 -22.923c0,3.347 1.252,5.822 3.741,7.425 2.504,1.602 5.533,2.408 9.087,2.408 3.616,0 6.707,-0.831 9.274,-2.492 2.579,-1.661 3.864,-4.228 3.864,-7.711 0,-3.323 -1.253,-5.807 -3.773,-7.46 -2.519,-1.652 -5.518,-2.475 -9.008,-2.475 -3.463,0 -6.524,0.881 -9.182,2.635 -2.675,1.762 -4.003,4.312 -4.003,7.67z"/>
        <polygon class="logo-l" fill="var(--light-text)"
                 points="458.775,35.251 594.807,35.225 790.762,419.62 660.369,419.682 527.512,167.887 327.66,543.314 185.423,543.964 "/>
        <path class="logo-d" fill="var(--light-blue)"
              d="M612.71 120.67l96.46 1.15 162.37 296.98 58.19-0.54 0 64.84-534.18 0-0.34-63.56 56.51-0.7 160.99-298.17zm50.21 94.24l111.38 204.78-111.38 0-112.54 0 112.54-204.78z"/>
        <polygon class="Logo-c" fill="var(--light-blue)"
                 points="929.732,149.63 1000.173,149.63 1000.173,372.857 1131.335,372.857 1131.335,149.63 1206.148,149.63 1206.148,372.857 1280.031,372.857 1280.031,456.619 1214.318,456.619 1214.318,418.254 929.732,418.254 "/>
        <path class="text-enter" fill="var(--light-blue)"
              d="M1684.655 404.369l0 -122.434 23.096 0 0 11.624c5.439,-4.491 11.596,-7.874 18.48,-10.117 6.83,-2.245 15.155,-3.382 24.925,-3.382 12.799,0 24.058,1.932 33.827,5.826 9.768,3.865 17.131,9.349 22.134,16.397 4.958,7.077 7.46,14.808 7.46,23.248 0,9.009 -2.744,17.138 -8.23,24.385 -5.486,7.219 -13.473,12.761 -23.961,16.626 -10.445,3.837 -21.464,5.769 -33.011,5.769 -8.47,0 -16.071,-1.051 -22.761,-3.156 -6.737,-2.102 -12.223,-4.745 -16.553,-7.956l0 43.17 -25.406 0zm33.741 -77.644c0,11.339 3.51,19.723 10.484,25.152 7.018,5.429 15.51,8.156 25.475,8.156 10.138,0 18.802,-2.813 25.994,-8.441 7.236,-5.627 10.833,-14.322 10.833,-26.118 0,-11.252 -3.51,-19.667 -10.573,-25.265 -7.061,-5.598 -15.466,-8.386 -25.257,-8.386 -9.707,0 -18.284,2.985 -25.735,8.927 -7.495,5.967 -11.221,14.607 -11.221,25.975zm-138.399 -44.79l81.201 0 0 12.448 -32.095 0 0 76.052 -17.013 0 0 -76.052 -32.093 0 0 -12.448zm-128.118 0l22.054 0 0 36.833 61.154 0 0 -36.833 22.053 0 0 88.5 -22.053 0 0 -39.22 -61.154 0 0 39.22 -22.054 0 0 -88.5zm-58.827 59.853l23.656 2.046c-3.683,9.01 -10.571,16.028 -20.623,21.001 -10.051,4.974 -22.876,7.476 -38.515,7.476 -19.668,0 -35.266,-3.979 -46.789,-11.936 -11.526,-7.93 -17.288,-19.098 -17.288,-33.45 0,-14.837 5.805,-26.375 17.458,-34.561 11.657,-8.213 26.776,-12.304 45.361,-12.304 17.981,0 32.668,4.007 44.061,12.048 11.396,8.043 17.113,19.355 17.113,33.934 0,0.883 -0.041,2.218 -0.128,3.98l-100.471 0c0.866,9.692 5.027,17.137 12.565,22.281 7.495,5.145 16.897,7.73 28.118,7.73 8.36,0 15.51,-1.449 21.402,-4.348 5.935,-2.899 10.614,-7.532 14.08,-13.897zm-74.866 -24.044l75.125 0c-0.996,-7.446 -3.897,-13.017 -8.62,-16.739 -7.234,-5.77 -16.681,-8.668 -28.249,-8.668 -10.481,0 -19.278,2.301 -26.427,6.905 -7.104,4.606 -11.047,10.772 -11.829,18.502z"/>
    </symbol>
</svg>






